<?xml version="1.0" encoding="UTF-8" standalone="no"?>
<!-- Created with Inkscape (http://www.inkscape.org/) -->

<svg
   width="40.797798mm"
   height="27.554909mm"
   viewBox="0 0 40.797798 27.554909"
   version="1.1"
   id="svg1"
   inkscape:version="1.3.1 (9b9bdc1480, 2023-11-25, custom)"
   sodipodi:docname="subspaces.svg"
   xmlns:inkscape="http://www.inkscape.org/namespaces/inkscape"
   xmlns:sodipodi="http://sodipodi.sourceforge.net/DTD/sodipodi-0.dtd"
   xmlns="http://www.w3.org/2000/svg"
   xmlns:svg="http://www.w3.org/2000/svg">
  <sodipodi:namedview
     id="namedview1"
     pagecolor="#ffffff"
     bordercolor="#000000"
     borderopacity="0.25"
     inkscape:showpageshadow="2"
     inkscape:pageopacity="0.0"
     inkscape:pagecheckerboard="0"
     inkscape:deskcolor="#d1d1d1"
     inkscape:document-units="mm"
     inkscape:zoom="4.2760943"
     inkscape:cx="64.077165"
     inkscape:cy="44.900787"
     inkscape:window-width="1472"
     inkscape:window-height="800"
     inkscape:window-x="0"
     inkscape:window-y="0"
     inkscape:window-maximized="1"
     inkscape:current-layer="layer1" />
  <defs
     id="defs1">
    <clipPath
       clipPathUnits="userSpaceOnUse"
       id="clipPath112">
      <path
         d="M 0,0 H 153.05 V 109.097 H 0 Z"
         transform="matrix(1.035,0,0,-1.035,49.692,180.16)"
         id="path112" />
    </clipPath>
    <clipPath
       clipPathUnits="userSpaceOnUse"
       id="clipPath2">
      <path
         d="M 0,0 H 155.05 V 107.097 H 0 Z"
         transform="translate(-83.586,-55.674)"
         id="path2" />
    </clipPath>
    <clipPath
       clipPathUnits="userSpaceOnUse"
       id="clipPath3">
      <path
         d="M 0,0 H 155.05 V 107.097 H 0 Z"
         transform="translate(-83.586,-55.674)"
         id="path3" />
    </clipPath>
    <clipPath
       clipPathUnits="userSpaceOnUse"
       id="clipPath4">
      <path
         d="M 0,0 H 155.05 V 107.097 H 0 Z"
         transform="translate(-83.586,-55.674)"
         id="path4" />
    </clipPath>
    <clipPath
       clipPathUnits="userSpaceOnUse"
       id="clipPath5">
      <path
         d="M 0,0 H 155.05 V 107.097 H 0 Z"
         transform="matrix(1,0,0,-1,-20.835,37.98)"
         id="path5" />
    </clipPath>
    <clipPath
       clipPathUnits="userSpaceOnUse"
       id="clipPath6">
      <path
         d="M 0,0 H 155.05 V 107.097 H 0 Z"
         transform="translate(-83.586,-55.674)"
         id="path6" />
    </clipPath>
    <clipPath
       clipPathUnits="userSpaceOnUse"
       id="clipPath7">
      <path
         d="M 0,0 H 155.05 V 107.097 H 0 Z"
         transform="translate(-83.586,-55.674)"
         id="path7" />
    </clipPath>
    <clipPath
       clipPathUnits="userSpaceOnUse"
       id="clipPath8">
      <path
         d="M 0,0 H 155.05 V 107.097 H 0 Z"
         transform="translate(-83.586,-55.674)"
         id="path8" />
    </clipPath>
    <clipPath
       clipPathUnits="userSpaceOnUse"
       id="clipPath9">
      <path
         d="M 0,0 H 155.05 V 107.097 H 0 Z"
         transform="translate(-83.586,-55.674)"
         id="path9" />
    </clipPath>
    <clipPath
       clipPathUnits="userSpaceOnUse"
       id="clipPath10">
      <path
         d="M 0,0 H 155.05 V 107.097 H 0 Z"
         transform="translate(-83.586,-55.674)"
         id="path10" />
    </clipPath>
    <clipPath
       clipPathUnits="userSpaceOnUse"
       id="clipPath11">
      <path
         d="M 0,0 H 155.05 V 107.097 H 0 Z"
         transform="translate(-83.586,-55.674)"
         id="path11" />
    </clipPath>
    <clipPath
       clipPathUnits="userSpaceOnUse"
       id="clipPath12">
      <path
         d="M 0,0 H 155.05 V 107.097 H 0 Z"
         transform="translate(-83.586,-55.674)"
         id="path12" />
    </clipPath>
    <clipPath
       clipPathUnits="userSpaceOnUse"
       id="clipPath13">
      <path
         d="M 0,0 H 155.05 V 107.097 H 0 Z"
         transform="translate(-83.586,-55.674)"
         id="path13" />
    </clipPath>
    <clipPath
       clipPathUnits="userSpaceOnUse"
       id="clipPath14">
      <path
         d="M 0,0 H 155.05 V 107.097 H 0 Z"
         transform="translate(-83.586,-55.674)"
         id="path14" />
    </clipPath>
    <clipPath
       clipPathUnits="userSpaceOnUse"
       id="clipPath15">
      <path
         d="M 0,0 H 155.05 V 107.097 H 0 Z"
         transform="translate(-83.586,-55.674)"
         id="path15" />
    </clipPath>
    <clipPath
       clipPathUnits="userSpaceOnUse"
       id="clipPath16">
      <path
         d="M 0,0 H 155.05 V 107.097 H 0 Z"
         transform="translate(-83.586,-55.674)"
         id="path16" />
    </clipPath>
    <clipPath
       clipPathUnits="userSpaceOnUse"
       id="clipPath17">
      <path
         d="M 0,0 H 155.05 V 107.097 H 0 Z"
         transform="translate(-83.586,-55.674)"
         id="path17" />
    </clipPath>
    <clipPath
       clipPathUnits="userSpaceOnUse"
       id="clipPath18">
      <path
         d="M 0,0 H 155.05 V 107.097 H 0 Z"
         transform="translate(-83.586,-55.674)"
         id="path18" />
    </clipPath>
    <clipPath
       clipPathUnits="userSpaceOnUse"
       id="clipPath19">
      <path
         d="M 0,0 H 155.05 V 107.097 H 0 Z"
         transform="translate(-83.586,-55.674)"
         id="path19" />
    </clipPath>
    <clipPath
       clipPathUnits="userSpaceOnUse"
       id="clipPath20">
      <path
         d="M 0,0 H 155.05 V 107.097 H 0 Z"
         transform="translate(-83.586,-55.674)"
         id="path20" />
    </clipPath>
    <clipPath
       clipPathUnits="userSpaceOnUse"
       id="clipPath21">
      <path
         d="M 0,0 H 155.05 V 107.097 H 0 Z"
         transform="translate(-83.586,-55.674)"
         id="path21" />
    </clipPath>
    <clipPath
       clipPathUnits="userSpaceOnUse"
       id="clipPath22">
      <path
         d="M 0,0 H 155.05 V 107.097 H 0 Z"
         transform="translate(-83.586,-55.674)"
         id="path22" />
    </clipPath>
    <clipPath
       clipPathUnits="userSpaceOnUse"
       id="clipPath23">
      <path
         d="M 0,0 H 155.05 V 107.097 H 0 Z"
         transform="translate(-83.586,-55.674)"
         id="path23" />
    </clipPath>
    <clipPath
       clipPathUnits="userSpaceOnUse"
       id="clipPath24">
      <path
         d="M 0,0 H 155.05 V 107.097 H 0 Z"
         transform="translate(-83.586,-55.674)"
         id="path24" />
    </clipPath>
    <clipPath
       clipPathUnits="userSpaceOnUse"
       id="clipPath25">
      <path
         d="M 0,0 H 155.05 V 107.097 H 0 Z"
         transform="translate(-83.586,-55.674)"
         id="path25" />
    </clipPath>
    <clipPath
       clipPathUnits="userSpaceOnUse"
       id="clipPath26">
      <path
         d="M 0,0 H 155.05 V 107.097 H 0 Z"
         transform="translate(-83.586,-55.674)"
         id="path26" />
    </clipPath>
    <clipPath
       clipPathUnits="userSpaceOnUse"
       id="clipPath27">
      <path
         d="M 0,0 H 155.05 V 107.097 H 0 Z"
         transform="translate(-83.586,-55.674)"
         id="path27" />
    </clipPath>
    <clipPath
       clipPathUnits="userSpaceOnUse"
       id="clipPath28">
      <path
         d="M 0,0 H 155.05 V 107.097 H 0 Z"
         transform="translate(-83.586,-55.674)"
         id="path28" />
    </clipPath>
    <clipPath
       clipPathUnits="userSpaceOnUse"
       id="clipPath29">
      <path
         d="M 0,0 H 155.05 V 107.097 H 0 Z"
         transform="translate(-83.586,-55.674)"
         id="path29" />
    </clipPath>
    <clipPath
       clipPathUnits="userSpaceOnUse"
       id="clipPath30">
      <path
         d="M 0,0 H 155.05 V 107.097 H 0 Z"
         transform="translate(-83.586,-55.674)"
         id="path30" />
    </clipPath>
    <clipPath
       clipPathUnits="userSpaceOnUse"
       id="clipPath31">
      <path
         d="M 0,0 H 155.05 V 107.097 H 0 Z"
         transform="translate(-83.586,-55.674)"
         id="path31" />
    </clipPath>
    <clipPath
       clipPathUnits="userSpaceOnUse"
       id="clipPath32">
      <path
         d="M 0,0 H 155.05 V 107.097 H 0 Z"
         transform="translate(-83.586,-55.674)"
         id="path32" />
    </clipPath>
    <clipPath
       clipPathUnits="userSpaceOnUse"
       id="clipPath33">
      <path
         d="M 0,0 H 155.05 V 107.097 H 0 Z"
         transform="translate(-83.586,-55.674)"
         id="path33" />
    </clipPath>
    <clipPath
       clipPathUnits="userSpaceOnUse"
       id="clipPath34">
      <path
         d="M 0,0 H 155.05 V 107.097 H 0 Z"
         transform="translate(-83.586,-55.674)"
         id="path34" />
    </clipPath>
    <clipPath
       clipPathUnits="userSpaceOnUse"
       id="clipPath35">
      <path
         d="M 0,0 H 155.05 V 107.097 H 0 Z"
         transform="translate(-83.586,-55.674)"
         id="path35" />
    </clipPath>
    <clipPath
       clipPathUnits="userSpaceOnUse"
       id="clipPath36">
      <path
         d="M 0,0 H 155.05 V 107.097 H 0 Z"
         transform="translate(-83.586,-55.674)"
         id="path36" />
    </clipPath>
    <clipPath
       clipPathUnits="userSpaceOnUse"
       id="clipPath37">
      <path
         d="M 0,0 H 155.05 V 107.097 H 0 Z"
         transform="translate(-83.586,-55.674)"
         id="path37" />
    </clipPath>
    <clipPath
       clipPathUnits="userSpaceOnUse"
       id="clipPath38">
      <path
         d="M 0,0 H 155.05 V 107.097 H 0 Z"
         transform="translate(-83.586,-55.674)"
         id="path38" />
    </clipPath>
    <clipPath
       clipPathUnits="userSpaceOnUse"
       id="clipPath39">
      <path
         d="M 0,0 H 155.05 V 107.097 H 0 Z"
         transform="translate(-83.586,-55.674)"
         id="path39" />
    </clipPath>
    <clipPath
       clipPathUnits="userSpaceOnUse"
       id="clipPath40">
      <path
         d="M 0,0 H 155.05 V 107.097 H 0 Z"
         transform="translate(-83.586,-55.674)"
         id="path40" />
    </clipPath>
    <clipPath
       clipPathUnits="userSpaceOnUse"
       id="clipPath41">
      <path
         d="M 0,0 H 155.05 V 107.097 H 0 Z"
         transform="translate(-83.586,-55.674)"
         id="path41" />
    </clipPath>
    <clipPath
       clipPathUnits="userSpaceOnUse"
       id="clipPath42">
      <path
         d="M 0,0 H 155.05 V 107.097 H 0 Z"
         transform="translate(-83.586,-55.674)"
         id="path42" />
    </clipPath>
    <clipPath
       clipPathUnits="userSpaceOnUse"
       id="clipPath43">
      <path
         d="M 0,0 H 155.05 V 107.097 H 0 Z"
         transform="translate(-83.586,-55.674)"
         id="path43" />
    </clipPath>
    <clipPath
       clipPathUnits="userSpaceOnUse"
       id="clipPath44">
      <path
         d="M 0,0 H 155.05 V 107.097 H 0 Z"
         transform="translate(-83.586,-55.674)"
         id="path44" />
    </clipPath>
    <clipPath
       clipPathUnits="userSpaceOnUse"
       id="clipPath45">
      <path
         d="M 0,0 H 155.05 V 107.097 H 0 Z"
         transform="translate(-83.586,-55.674)"
         id="path45" />
    </clipPath>
    <clipPath
       clipPathUnits="userSpaceOnUse"
       id="clipPath46">
      <path
         d="M 0,0 H 155.05 V 107.097 H 0 Z"
         transform="translate(-83.586,-55.674)"
         id="path46" />
    </clipPath>
    <clipPath
       clipPathUnits="userSpaceOnUse"
       id="clipPath47">
      <path
         d="M 0,0 H 155.05 V 107.097 H 0 Z"
         transform="matrix(1,0,0,-1,-6.378,4.8149952)"
         id="path47" />
    </clipPath>
    <clipPath
       clipPathUnits="userSpaceOnUse"
       id="clipPath48">
      <path
         d="M 0,0 H 155.05 V 107.097 H 0 Z"
         transform="translate(-83.586,-55.674)"
         id="path48" />
    </clipPath>
    <clipPath
       clipPathUnits="userSpaceOnUse"
       id="clipPath49">
      <path
         d="M 0,0 H 155.05 V 107.097 H 0 Z"
         transform="matrix(1,0,0,-1,-5.811,96.941)"
         id="path49" />
    </clipPath>
    <clipPath
       clipPathUnits="userSpaceOnUse"
       id="clipPath50">
      <path
         d="M 0,0 H 155.05 V 107.097 H 0 Z"
         transform="translate(-83.586,-55.674)"
         id="path50" />
    </clipPath>
    <clipPath
       clipPathUnits="userSpaceOnUse"
       id="clipPath51">
      <path
         d="M 0,0 H 155.05 V 107.097 H 0 Z"
         transform="translate(-83.586,-55.674)"
         id="path51" />
    </clipPath>
    <clipPath
       clipPathUnits="userSpaceOnUse"
       id="clipPath52">
      <path
         d="M 0,0 H 155.05 V 107.097 H 0 Z"
         transform="translate(-83.586,-55.674)"
         id="path52" />
    </clipPath>
    <clipPath
       clipPathUnits="userSpaceOnUse"
       id="clipPath53">
      <path
         d="M 0,0 H 155.05 V 107.097 H 0 Z"
         transform="translate(-83.586,-55.674)"
         id="path53" />
    </clipPath>
    <clipPath
       clipPathUnits="userSpaceOnUse"
       id="clipPath54">
      <path
         d="M 0,0 H 155.05 V 107.097 H 0 Z"
         transform="translate(-83.586,-55.674)"
         id="path54" />
    </clipPath>
    <clipPath
       clipPathUnits="userSpaceOnUse"
       id="clipPath55">
      <path
         d="M 0,0 H 155.05 V 107.097 H 0 Z"
         transform="translate(-83.586,-55.674)"
         id="path55" />
    </clipPath>
    <clipPath
       clipPathUnits="userSpaceOnUse"
       id="clipPath56">
      <path
         d="M 0,0 H 155.05 V 107.097 H 0 Z"
         transform="translate(-83.586,-55.674)"
         id="path56" />
    </clipPath>
    <clipPath
       clipPathUnits="userSpaceOnUse"
       id="clipPath57">
      <path
         d="M 0,0 H 155.05 V 107.097 H 0 Z"
         transform="translate(-83.586,-55.674)"
         id="path57" />
    </clipPath>
    <clipPath
       clipPathUnits="userSpaceOnUse"
       id="clipPath58">
      <path
         d="M 0,0 H 155.05 V 107.097 H 0 Z"
         transform="translate(-83.586,-55.674)"
         id="path58" />
    </clipPath>
    <clipPath
       clipPathUnits="userSpaceOnUse"
       id="clipPath59">
      <path
         d="M 0,0 H 155.05 V 107.097 H 0 Z"
         transform="translate(-83.586,-55.674)"
         id="path59" />
    </clipPath>
    <clipPath
       clipPathUnits="userSpaceOnUse"
       id="clipPath60">
      <path
         d="M 0,0 H 155.05 V 107.097 H 0 Z"
         transform="translate(-83.586,-55.674)"
         id="path60" />
    </clipPath>
    <clipPath
       clipPathUnits="userSpaceOnUse"
       id="clipPath61">
      <path
         d="M 0,0 H 155.05 V 107.097 H 0 Z"
         transform="translate(-83.586,-55.674)"
         id="path61" />
    </clipPath>
    <clipPath
       clipPathUnits="userSpaceOnUse"
       id="clipPath62">
      <path
         d="M 0,0 H 155.05 V 107.097 H 0 Z"
         transform="translate(-83.586,-55.674)"
         id="path62" />
    </clipPath>
    <clipPath
       clipPathUnits="userSpaceOnUse"
       id="clipPath63">
      <path
         d="M 0,0 H 155.05 V 107.097 H 0 Z"
         transform="translate(-83.586,-55.674)"
         id="path63" />
    </clipPath>
    <clipPath
       clipPathUnits="userSpaceOnUse"
       id="clipPath64">
      <path
         d="M 0,0 H 155.05 V 107.097 H 0 Z"
         transform="translate(-83.586,-55.674)"
         id="path64" />
    </clipPath>
    <clipPath
       clipPathUnits="userSpaceOnUse"
       id="clipPath65">
      <path
         d="M 0,0 H 155.05 V 107.097 H 0 Z"
         transform="translate(-83.586,-55.674)"
         id="path65" />
    </clipPath>
    <clipPath
       clipPathUnits="userSpaceOnUse"
       id="clipPath66">
      <path
         d="M 0,0 H 155.05 V 107.097 H 0 Z"
         transform="translate(-83.586,-55.674)"
         id="path66" />
    </clipPath>
    <clipPath
       clipPathUnits="userSpaceOnUse"
       id="clipPath67">
      <path
         d="M 0,0 H 155.05 V 107.097 H 0 Z"
         transform="translate(-83.586,-55.674)"
         id="path67" />
    </clipPath>
    <clipPath
       clipPathUnits="userSpaceOnUse"
       id="clipPath68">
      <path
         d="M 0,0 H 155.05 V 107.097 H 0 Z"
         transform="translate(-83.586,-55.674)"
         id="path68" />
    </clipPath>
    <clipPath
       clipPathUnits="userSpaceOnUse"
       id="clipPath69">
      <path
         d="M 0,0 H 155.05 V 107.097 H 0 Z"
         transform="translate(-83.586,-55.674)"
         id="path69" />
    </clipPath>
    <clipPath
       clipPathUnits="userSpaceOnUse"
       id="clipPath70">
      <path
         d="M 0,0 H 155.05 V 107.097 H 0 Z"
         transform="translate(-83.586,-55.674)"
         id="path70" />
    </clipPath>
    <clipPath
       clipPathUnits="userSpaceOnUse"
       id="clipPath71">
      <path
         d="M 0,0 H 155.05 V 107.097 H 0 Z"
         transform="translate(-83.586,-55.674)"
         id="path71" />
    </clipPath>
    <clipPath
       clipPathUnits="userSpaceOnUse"
       id="clipPath72">
      <path
         d="M 0,0 H 155.05 V 107.097 H 0 Z"
         transform="translate(-83.586,-55.674)"
         id="path72" />
    </clipPath>
    <clipPath
       clipPathUnits="userSpaceOnUse"
       id="clipPath73">
      <path
         d="M 0,0 H 155.05 V 107.097 H 0 Z"
         transform="translate(-83.586,-55.674)"
         id="path73" />
    </clipPath>
    <clipPath
       clipPathUnits="userSpaceOnUse"
       id="clipPath74">
      <path
         d="M 0,0 H 155.05 V 107.097 H 0 Z"
         transform="translate(-83.586,-55.674)"
         id="path74" />
    </clipPath>
    <clipPath
       clipPathUnits="userSpaceOnUse"
       id="clipPath75">
      <path
         d="M 0,0 H 155.05 V 107.097 H 0 Z"
         transform="translate(-83.586,-55.674)"
         id="path75" />
    </clipPath>
    <clipPath
       clipPathUnits="userSpaceOnUse"
       id="clipPath76">
      <path
         d="M 0,0 H 155.05 V 107.097 H 0 Z"
         transform="translate(-83.586,-55.674)"
         id="path76" />
    </clipPath>
    <clipPath
       clipPathUnits="userSpaceOnUse"
       id="clipPath77">
      <path
         d="M 0,0 H 155.05 V 107.097 H 0 Z"
         transform="translate(-83.586,-55.674)"
         id="path77" />
    </clipPath>
    <clipPath
       clipPathUnits="userSpaceOnUse"
       id="clipPath78">
      <path
         d="M 0,0 H 155.05 V 107.097 H 0 Z"
         transform="translate(-83.586,-55.674)"
         id="path78" />
    </clipPath>
    <clipPath
       clipPathUnits="userSpaceOnUse"
       id="clipPath79">
      <path
         d="M 0,0 H 155.05 V 107.097 H 0 Z"
         transform="translate(-83.586,-55.674)"
         id="path79" />
    </clipPath>
    <clipPath
       clipPathUnits="userSpaceOnUse"
       id="clipPath80">
      <path
         d="M 0,0 H 155.05 V 107.097 H 0 Z"
         transform="translate(-83.586,-55.674)"
         id="path80" />
    </clipPath>
    <clipPath
       clipPathUnits="userSpaceOnUse"
       id="clipPath81">
      <path
         d="M 0,0 H 155.05 V 107.097 H 0 Z"
         transform="translate(-83.586,-55.674)"
         id="path81" />
    </clipPath>
    <clipPath
       clipPathUnits="userSpaceOnUse"
       id="clipPath82">
      <path
         d="M 0,0 H 155.05 V 107.097 H 0 Z"
         transform="translate(-83.586,-55.674)"
         id="path82" />
    </clipPath>
    <clipPath
       clipPathUnits="userSpaceOnUse"
       id="clipPath83">
      <path
         d="M 0,0 H 155.05 V 107.097 H 0 Z"
         transform="translate(-83.586,-55.674)"
         id="path83" />
    </clipPath>
    <clipPath
       clipPathUnits="userSpaceOnUse"
       id="clipPath84">
      <path
         d="M 0,0 H 155.05 V 107.097 H 0 Z"
         transform="translate(-83.586,-55.674)"
         id="path84" />
    </clipPath>
    <clipPath
       clipPathUnits="userSpaceOnUse"
       id="clipPath85">
      <path
         d="M 0,0 H 155.05 V 107.097 H 0 Z"
         transform="translate(-83.586,-55.674)"
         id="path85" />
    </clipPath>
    <clipPath
       clipPathUnits="userSpaceOnUse"
       id="clipPath86">
      <path
         d="M 0,0 H 155.05 V 107.097 H 0 Z"
         transform="translate(-83.586,-55.674)"
         id="path86" />
    </clipPath>
    <clipPath
       clipPathUnits="userSpaceOnUse"
       id="clipPath87">
      <path
         d="M 0,0 H 155.05 V 107.097 H 0 Z"
         transform="translate(-83.586,-55.674)"
         id="path87" />
    </clipPath>
    <clipPath
       clipPathUnits="userSpaceOnUse"
       id="clipPath88">
      <path
         d="M 0,0 H 155.05 V 107.097 H 0 Z"
         transform="translate(-83.586,-55.674)"
         id="path88" />
    </clipPath>
    <clipPath
       clipPathUnits="userSpaceOnUse"
       id="clipPath89">
      <path
         d="M 0,0 H 155.05 V 107.097 H 0 Z"
         transform="translate(-83.586,-55.674)"
         id="path89" />
    </clipPath>
    <clipPath
       clipPathUnits="userSpaceOnUse"
       id="clipPath90">
      <path
         d="M 0,0 H 155.05 V 107.097 H 0 Z"
         transform="translate(-83.586,-55.674)"
         id="path90" />
    </clipPath>
    <clipPath
       clipPathUnits="userSpaceOnUse"
       id="clipPath91">
      <path
         d="M 0,0 H 155.05 V 107.097 H 0 Z"
         transform="translate(-83.586,-55.674)"
         id="path91" />
    </clipPath>
    <clipPath
       clipPathUnits="userSpaceOnUse"
       id="clipPath92">
      <path
         d="M 0,0 H 155.05 V 107.097 H 0 Z"
         transform="translate(-83.586,-55.674)"
         id="path92" />
    </clipPath>
    <clipPath
       clipPathUnits="userSpaceOnUse"
       id="clipPath93">
      <path
         d="M 0,0 H 155.05 V 107.097 H 0 Z"
         transform="translate(-83.586,-55.674)"
         id="path93" />
    </clipPath>
    <clipPath
       clipPathUnits="userSpaceOnUse"
       id="clipPath94">
      <path
         d="M 0,0 H 155.05 V 107.097 H 0 Z"
         transform="translate(-83.586,-55.674)"
         id="path94" />
    </clipPath>
    <clipPath
       clipPathUnits="userSpaceOnUse"
       id="clipPath95">
      <path
         d="M 0,0 H 155.05 V 107.097 H 0 Z"
         transform="translate(-83.586,-55.674)"
         id="path95" />
    </clipPath>
    <clipPath
       clipPathUnits="userSpaceOnUse"
       id="clipPath96">
      <path
         d="M 0,0 H 155.05 V 107.097 H 0 Z"
         transform="translate(-83.586,-55.674)"
         id="path96" />
    </clipPath>
    <clipPath
       clipPathUnits="userSpaceOnUse"
       id="clipPath97">
      <path
         d="M 0,0 H 155.05 V 107.097 H 0 Z"
         transform="translate(-83.586,-55.674)"
         id="path97" />
    </clipPath>
    <clipPath
       clipPathUnits="userSpaceOnUse"
       id="clipPath98">
      <path
         d="M 0,0 H 155.05 V 107.097 H 0 Z"
         transform="translate(-83.586,-55.674)"
         id="path98" />
    </clipPath>
    <clipPath
       clipPathUnits="userSpaceOnUse"
       id="clipPath99">
      <path
         d="M 0,0 H 155.05 V 107.097 H 0 Z"
         transform="translate(-83.586,-55.674)"
         id="path99" />
    </clipPath>
    <clipPath
       clipPathUnits="userSpaceOnUse"
       id="clipPath100">
      <path
         d="M 0,0 H 155.05 V 107.097 H 0 Z"
         transform="translate(-83.586,-55.674)"
         id="path100" />
    </clipPath>
    <clipPath
       clipPathUnits="userSpaceOnUse"
       id="clipPath101">
      <path
         d="M 0,0 H 155.05 V 107.097 H 0 Z"
         transform="translate(-83.586,-55.674)"
         id="path101" />
    </clipPath>
    <clipPath
       clipPathUnits="userSpaceOnUse"
       id="clipPath102">
      <path
         d="M 0,0 H 155.05 V 107.097 H 0 Z"
         transform="translate(-83.586,-55.674)"
         id="path102" />
    </clipPath>
    <clipPath
       clipPathUnits="userSpaceOnUse"
       id="clipPath103">
      <path
         d="M 0,0 H 155.05 V 107.097 H 0 Z"
         transform="translate(-83.586,-55.674)"
         id="path103" />
    </clipPath>
    <clipPath
       clipPathUnits="userSpaceOnUse"
       id="clipPath104">
      <path
         d="M 0,0 H 155.05 V 107.097 H 0 Z"
         transform="translate(-83.586,-55.674)"
         id="path104" />
    </clipPath>
    <clipPath
       clipPathUnits="userSpaceOnUse"
       id="clipPath105">
      <path
         d="M 0,0 H 155.05 V 107.097 H 0 Z"
         transform="translate(-83.586,-55.674)"
         id="path105" />
    </clipPath>
    <clipPath
       clipPathUnits="userSpaceOnUse"
       id="clipPath106">
      <path
         d="M 0,0 H 155.05 V 107.097 H 0 Z"
         transform="translate(-83.586,-55.674)"
         id="path106" />
    </clipPath>
    <clipPath
       clipPathUnits="userSpaceOnUse"
       id="clipPath107">
      <path
         d="M 0,0 H 155.05 V 107.097 H 0 Z"
         transform="translate(-83.586,-55.674)"
         id="path107" />
    </clipPath>
    <clipPath
       clipPathUnits="userSpaceOnUse"
       id="clipPath108">
      <path
         d="M 0,0 H 155.05 V 107.097 H 0 Z"
         transform="translate(-83.586,-55.674)"
         id="path108" />
    </clipPath>
    <clipPath
       clipPathUnits="userSpaceOnUse"
       id="clipPath109">
      <path
         d="M 0,0 H 155.05 V 107.097 H 0 Z"
         transform="translate(-83.586,-55.674)"
         id="path109" />
    </clipPath>
    <clipPath
       clipPathUnits="userSpaceOnUse"
       id="clipPath110">
      <path
         d="M 0,0 H 155.05 V 107.097 H 0 Z"
         transform="translate(-83.586,-55.674)"
         id="path110" />
    </clipPath>
    <clipPath
       clipPathUnits="userSpaceOnUse"
       id="clipPath111">
      <path
         d="M 0,0 H 155.05 V 107.097 H 0 Z"
         transform="matrix(1,0,0,-1,-101.158,43.374)"
         id="path111" />
    </clipPath>
  </defs>
  <g
     inkscape:label="Layer 1"
     inkscape:groupmode="layer"
     id="layer1"
     transform="translate(-84.666667,-134.67291)">
    <g
       id="g228"
       transform="matrix(0.26458333,0,0,0.26458333,70.405005,116.56549)">
      <g
         clip-path="url(#clipPath112)"
         id="g227">
        <path
           d="M -31.74828,-22.67752 -63.497,-45.35506"
           style="fill:none;stroke:#9999ff;stroke-width:1.19553;stroke-linecap:butt;stroke-linejoin:miter;stroke-miterlimit:10;stroke-dasharray:none;stroke-opacity:1"
           transform="matrix(1.035,0,0,-1.035,134.13351,118.39741)"
           clip-path="url(#clipPath2)"
           id="path113" />
        <path
           d="M 31.74828,-22.67752 63.497,-45.35506"
           style="fill:none;stroke:#33ff33;stroke-width:1.19553;stroke-linecap:butt;stroke-linejoin:miter;stroke-miterlimit:10;stroke-dasharray:none;stroke-opacity:1"
           transform="matrix(1.035,0,0,-1.035,134.13351,118.39741)"
           clip-path="url(#clipPath3)"
           id="path114" />
        <path
           d="M -70.867,-22.67752 H 56.69362 L 70.867,22.67752 H -56.69362 Z"
           style="fill:#ffd6d6;fill-opacity:1;fill-rule:nonzero;stroke:#ff4747;stroke-width:1.19553;stroke-linecap:butt;stroke-linejoin:miter;stroke-miterlimit:10;stroke-dasharray:none;stroke-opacity:1"
           transform="matrix(1.035,0,0,-1.035,134.13351,118.39741)"
           clip-path="url(#clipPath4)"
           id="path115" />
        <g
           aria-label="S&#10;1"
           transform="matrix(1.035,0,0,1.035,69.186225,136.7107)"
           clip-path="url(#clipPath5)"
           id="g117">
          <path
             d="M 4.6962802,-4.1211473 C 4.2131884,-4.2872101 3.3224879,-4.5891425 3.3224879,-5.3288768 c 0,-0.2415459 0.120773,-0.5736715 0.317029,-0.6642512 0.09058,-0.060387 0.3925121,-0.1509662 0.7699275,-0.1509662 0.1358696,0 0.5132851,0.015097 0.9661836,0.1358696 0.2415459,0.060386 0.513285,0.1358695 0.513285,0.5736715 0,0.1207729 -0.04529,0.196256 -0.04529,0.2566425 0,0.1207729 0.1207729,0.1509662 0.1509662,0.1509662 0.1207729,0 0.4076087,-0.04529 0.7850241,-0.317029 0.3019324,-0.2113527 0.4076087,-0.3925121 0.4076087,-0.7246377 0,-0.317029 -0.1509662,-0.6189614 -0.5434782,-0.7548309 -0.2415459,-0.075483 -0.6793479,-0.1811594 -1.2077295,-0.1811594 -1.6908213,0 -3.3967391,1.1322463 -3.3967391,2.2946859 0,0.9208938 1.0869565,1.2832126 1.5247584,1.4341788 0.7246377,0.2415459 1.7210145,0.5887681 1.7210145,1.4492753 0,0.030193 0,0.7246377 -0.5736715,0.93599039 -0.4528985,0.1660628 -0.9812802,0.19625603 -1.1775362,0.19625603 -0.9208937,0 -1.9927536,-0.46799512 -1.9927536,-1.16243962 0,-0.1660628 0.030193,-0.2415459 0.060386,-0.2868357 0.3472223,-0.1811595 0.5585749,-0.4227054 0.5585749,-0.5585749 0,-0.09058 -0.09058,-0.120773 -0.1811594,-0.120773 -0.6189614,0 -1.7210145,0.6793479 -1.7210145,1.585145 0,0.40760866 0.19625603,0.72463764 0.830314,1.07185987 0.634058,0.3321256 1.2077295,0.3321256 1.4341787,0.3321256 2.1437199,0 4.0609904,-1.28321257 4.0609904,-2.62681157 0,-0.9057971 -0.9359904,-1.3435991 -1.8870767,-1.660628 z m 0,0"
             style="fill:#000000;fill-opacity:1;fill-rule:nonzero;stroke:none"
             id="path116" />
          <path
             d="m 9.9876449,-2.9436111 c 0,-0.1811594 -0.015097,-0.196256 -0.2113526,-0.196256 C 9.3233937,-2.7020652 8.6893357,-2.6869686 8.4025,-2.6869686 v 0.2415459 c 0.1660628,0 0.634058,0 1.0114734,-0.196256 v 3.56280189 c 0,0.22644931 0,0.31702901 -0.6944444,0.31702901 H 8.4628865 v 0.2566425 c 0.1207729,0 0.9812802,-0.030193 1.2379227,-0.030193 0.2113526,0 1.0869568,0.030193 1.2530198,0.030193 V 1.2381522 h -0.27174 c -0.6944441,0 -0.6944441,-0.09058 -0.6944441,-0.31702901 z m 0,0"
             style="fill:#000000;fill-opacity:1;fill-rule:nonzero;stroke:none"
             id="path117" />
        </g>
        <path
           d="m 1.90271,13.1141 c 0,0.6261 -0.50757,1.13367 -1.13368,1.13367 -0.62612,0 -1.13365,-0.50757 -1.13365,-1.13367 0,-0.62611 0.50753,-1.13368 1.13365,-1.13368 0.62611,0 1.13368,0.50757 1.13368,1.13368 z"
           style="fill:#ff3333;fill-opacity:1;fill-rule:nonzero;stroke:#ff3333;stroke-width:1.19553;stroke-linecap:butt;stroke-linejoin:miter;stroke-miterlimit:10;stroke-dasharray:none;stroke-opacity:1"
           transform="matrix(1.035,0,0,-1.035,134.13351,118.39741)"
           clip-path="url(#clipPath6)"
           id="path118" />
        <path
           d="m 29.08513,-15.87585 c 0,0.62609 -0.50755,1.13366 -1.13367,1.13366 -0.62611,0 -1.13366,-0.50757 -1.13366,-1.13366 0,-0.62612 0.50755,-1.13369 1.13366,-1.13369 0.62612,0 1.13367,0.50757 1.13367,1.13369 z"
           style="fill:#ff3333;fill-opacity:1;fill-rule:nonzero;stroke:#ff3333;stroke-width:1.19553;stroke-linecap:butt;stroke-linejoin:miter;stroke-miterlimit:10;stroke-dasharray:none;stroke-opacity:1"
           transform="matrix(1.035,0,0,-1.035,134.13351,118.39741)"
           clip-path="url(#clipPath7)"
           id="path119" />
        <path
           d="m -46.61505,-6.514 c 0,0.6261 -0.50757,1.13366 -1.13367,1.13366 -0.62611,0 -1.13368,-0.50756 -1.13368,-1.13366 0,-0.62612 0.50757,-1.13367 1.13368,-1.13367 0.6261,0 1.13367,0.50755 1.13367,1.13367 z"
           style="fill:#ff3333;fill-opacity:1;fill-rule:nonzero;stroke:#ff3333;stroke-width:1.19553;stroke-linecap:butt;stroke-linejoin:miter;stroke-miterlimit:10;stroke-dasharray:none;stroke-opacity:1"
           transform="matrix(1.035,0,0,-1.035,134.13351,118.39741)"
           clip-path="url(#clipPath8)"
           id="path120" />
        <path
           d="m -10.55176,-7.31638 c 0,0.62612 -0.50757,1.13368 -1.13368,1.13368 -0.6261,0 -1.13366,-0.50756 -1.13366,-1.13368 0,-0.62609 0.50756,-1.13366 1.13366,-1.13366 0.62611,0 1.13368,0.50757 1.13368,1.13366 z"
           style="fill:#ff3333;fill-opacity:1;fill-rule:nonzero;stroke:#ff3333;stroke-width:1.19553;stroke-linecap:butt;stroke-linejoin:miter;stroke-miterlimit:10;stroke-dasharray:none;stroke-opacity:1"
           transform="matrix(1.035,0,0,-1.035,134.13351,118.39741)"
           clip-path="url(#clipPath9)"
           id="path121" />
        <path
           d="m 50.50787,0.29239 c 0,0.62611 -0.50757,1.13367 -1.13368,1.13367 -0.62609,0 -1.13367,-0.50756 -1.13367,-1.13367 0,-0.6261 0.50758,-1.13365 1.13367,-1.13365 0.62611,0 1.13368,0.50755 1.13368,1.13365 z"
           style="fill:#ff3333;fill-opacity:1;fill-rule:nonzero;stroke:#ff3333;stroke-width:1.19553;stroke-linecap:butt;stroke-linejoin:miter;stroke-miterlimit:10;stroke-dasharray:none;stroke-opacity:1"
           transform="matrix(1.035,0,0,-1.035,134.13351,118.39741)"
           clip-path="url(#clipPath10)"
           id="path122" />
        <path
           d="m -15.82527,16.24092 c 0,0.62611 -0.50755,1.13367 -1.13367,1.13367 -0.62611,0 -1.13366,-0.50756 -1.13366,-1.13367 0,-0.62612 0.50755,-1.13367 1.13366,-1.13367 0.62612,0 1.13367,0.50755 1.13367,1.13367 z"
           style="fill:#ff3333;fill-opacity:1;fill-rule:nonzero;stroke:#ff3333;stroke-width:1.19553;stroke-linecap:butt;stroke-linejoin:miter;stroke-miterlimit:10;stroke-dasharray:none;stroke-opacity:1"
           transform="matrix(1.035,0,0,-1.035,134.13351,118.39741)"
           clip-path="url(#clipPath11)"
           id="path123" />
        <path
           d="m 0.38971,0.2941 c 0,0.62611 -0.50755,1.13368 -1.13365,1.13368 -0.62612,0 -1.13368,-0.50757 -1.13368,-1.13368 0,-0.62609 0.50756,-1.13365 1.13368,-1.13365 0.6261,0 1.13365,0.50756 1.13365,1.13365 z"
           style="fill:#ff3333;fill-opacity:1;fill-rule:nonzero;stroke:#ff3333;stroke-width:1.19553;stroke-linecap:butt;stroke-linejoin:miter;stroke-miterlimit:10;stroke-dasharray:none;stroke-opacity:1"
           transform="matrix(1.035,0,0,-1.035,134.13351,118.39741)"
           clip-path="url(#clipPath12)"
           id="path124" />
        <path
           d="m 45.45583,15.28587 c 0,0.6261 -0.50757,1.13367 -1.13369,1.13367 -0.6261,0 -1.13366,-0.50757 -1.13366,-1.13367 0,-0.62611 0.50756,-1.13368 1.13366,-1.13368 0.62612,0 1.13369,0.50757 1.13369,1.13368 z"
           style="fill:#ff3333;fill-opacity:1;fill-rule:nonzero;stroke:#ff3333;stroke-width:1.19553;stroke-linecap:butt;stroke-linejoin:miter;stroke-miterlimit:10;stroke-dasharray:none;stroke-opacity:1"
           transform="matrix(1.035,0,0,-1.035,134.13351,118.39741)"
           clip-path="url(#clipPath13)"
           id="path125" />
        <path
           d="m -19.71896,-8.13472 c 0,0.6261 -0.50757,1.13367 -1.13367,1.13367 -0.62611,0 -1.13368,-0.50757 -1.13368,-1.13367 0,-0.62611 0.50757,-1.13368 1.13368,-1.13368 0.6261,0 1.13367,0.50757 1.13367,1.13368 z"
           style="fill:#ff3333;fill-opacity:1;fill-rule:nonzero;stroke:#ff3333;stroke-width:1.19553;stroke-linecap:butt;stroke-linejoin:miter;stroke-miterlimit:10;stroke-dasharray:none;stroke-opacity:1"
           transform="matrix(1.035,0,0,-1.035,134.13351,118.39741)"
           clip-path="url(#clipPath14)"
           id="path126" />
        <path
           d="m -20.56155,-10.79916 c 0,0.62611 -0.50755,1.13368 -1.13367,1.13368 -0.62611,0 -1.13367,-0.50757 -1.13367,-1.13368 0,-0.6261 0.50756,-1.13367 1.13367,-1.13367 0.62612,0 1.13367,0.50757 1.13367,1.13367 z"
           style="fill:#ff3333;fill-opacity:1;fill-rule:nonzero;stroke:#ff3333;stroke-width:1.19553;stroke-linecap:butt;stroke-linejoin:miter;stroke-miterlimit:10;stroke-dasharray:none;stroke-opacity:1"
           transform="matrix(1.035,0,0,-1.035,134.13351,118.39741)"
           clip-path="url(#clipPath15)"
           id="path127" />
        <path
           d="m 56.95442,-11.61882 c 0,0.62612 -0.50757,1.13367 -1.13368,1.13367 -0.6261,0 -1.13367,-0.50755 -1.13367,-1.13367 0,-0.62611 0.50757,-1.13367 1.13367,-1.13367 0.62611,0 1.13368,0.50756 1.13368,1.13367 z"
           style="fill:#ff3333;fill-opacity:1;fill-rule:nonzero;stroke:#ff3333;stroke-width:1.19553;stroke-linecap:butt;stroke-linejoin:miter;stroke-miterlimit:10;stroke-dasharray:none;stroke-opacity:1"
           transform="matrix(1.035,0,0,-1.035,134.13351,118.39741)"
           clip-path="url(#clipPath16)"
           id="path128" />
        <path
           d="m -2.69513,11.08723 c 0,0.62612 -0.50757,1.13367 -1.13368,1.13367 -0.6261,0 -1.13367,-0.50755 -1.13367,-1.13367 0,-0.62611 0.50757,-1.13366 1.13367,-1.13366 0.62611,0 1.13368,0.50755 1.13368,1.13366 z"
           style="fill:#ff3333;fill-opacity:1;fill-rule:nonzero;stroke:#ff3333;stroke-width:1.19553;stroke-linecap:butt;stroke-linejoin:miter;stroke-miterlimit:10;stroke-dasharray:none;stroke-opacity:1"
           transform="matrix(1.035,0,0,-1.035,134.13351,118.39741)"
           clip-path="url(#clipPath17)"
           id="path129" />
        <path
           d="m 45.43939,1.44206 c 0,0.62612 -0.50757,1.13368 -1.13366,1.13368 -0.62612,0 -1.13369,-0.50756 -1.13369,-1.13368 0,-0.6261 0.50757,-1.13366 1.13369,-1.13366 0.62609,0 1.13366,0.50756 1.13366,1.13366 z"
           style="fill:#ff3333;fill-opacity:1;fill-rule:nonzero;stroke:#ff3333;stroke-width:1.19553;stroke-linecap:butt;stroke-linejoin:miter;stroke-miterlimit:10;stroke-dasharray:none;stroke-opacity:1"
           transform="matrix(1.035,0,0,-1.035,134.13351,118.39741)"
           clip-path="url(#clipPath18)"
           id="path130" />
        <path
           d="m 27.32469,13.92035 c 0,0.62611 -0.50755,1.13368 -1.13367,1.13368 -0.62611,0 -1.13366,-0.50757 -1.13366,-1.13368 0,-0.6261 0.50755,-1.13367 1.13366,-1.13367 0.62612,0 1.13367,0.50757 1.13367,1.13367 z"
           style="fill:#ff3333;fill-opacity:1;fill-rule:nonzero;stroke:#ff3333;stroke-width:1.19553;stroke-linecap:butt;stroke-linejoin:miter;stroke-miterlimit:10;stroke-dasharray:none;stroke-opacity:1"
           transform="matrix(1.035,0,0,-1.035,134.13351,118.39741)"
           clip-path="url(#clipPath19)"
           id="path131" />
        <path
           d="m -13.51291,-13.35373 c 0,0.62611 -0.50757,1.13367 -1.13367,1.13367 -0.62611,0 -1.13368,-0.50756 -1.13368,-1.13367 0,-0.62611 0.50757,-1.13367 1.13368,-1.13367 0.6261,0 1.13367,0.50756 1.13367,1.13367 z"
           style="fill:#ff3333;fill-opacity:1;fill-rule:nonzero;stroke:#ff3333;stroke-width:1.19553;stroke-linecap:butt;stroke-linejoin:miter;stroke-miterlimit:10;stroke-dasharray:none;stroke-opacity:1"
           transform="matrix(1.035,0,0,-1.035,134.13351,118.39741)"
           clip-path="url(#clipPath20)"
           id="path132" />
        <path
           d="m 38.82674,-5.7921 c 0,0.62611 -0.50756,1.13367 -1.13367,1.13367 -0.62611,0 -1.13367,-0.50756 -1.13367,-1.13367 0,-0.62611 0.50756,-1.13367 1.13367,-1.13367 0.62611,0 1.13367,0.50756 1.13367,1.13367 z"
           style="fill:#ff3333;fill-opacity:1;fill-rule:nonzero;stroke:#ff3333;stroke-width:1.19553;stroke-linecap:butt;stroke-linejoin:miter;stroke-miterlimit:10;stroke-dasharray:none;stroke-opacity:1"
           transform="matrix(1.035,0,0,-1.035,134.13351,118.39741)"
           clip-path="url(#clipPath21)"
           id="path133" />
        <path
           d="m 31.50215,-19.78687 c 0,0.6261 -0.50755,1.13367 -1.13367,1.13367 -0.62611,0 -1.13366,-0.50757 -1.13366,-1.13367 0,-0.62611 0.50755,-1.13368 1.13366,-1.13368 0.62612,0 1.13367,0.50757 1.13367,1.13368 z"
           style="fill:#ff3333;fill-opacity:1;fill-rule:nonzero;stroke:#ff3333;stroke-width:1.19553;stroke-linecap:butt;stroke-linejoin:miter;stroke-miterlimit:10;stroke-dasharray:none;stroke-opacity:1"
           transform="matrix(1.035,0,0,-1.035,134.13351,118.39741)"
           clip-path="url(#clipPath22)"
           id="path134" />
        <path
           d="m 14.36845,-9.34323 c 0,0.6261 -0.50755,1.13367 -1.13366,1.13367 -0.62612,0 -1.13367,-0.50757 -1.13367,-1.13367 0,-0.62612 0.50755,-1.13368 1.13367,-1.13368 0.62611,0 1.13366,0.50756 1.13366,1.13368 z"
           style="fill:#ff3333;fill-opacity:1;fill-rule:nonzero;stroke:#ff3333;stroke-width:1.19553;stroke-linecap:butt;stroke-linejoin:miter;stroke-miterlimit:10;stroke-dasharray:none;stroke-opacity:1"
           transform="matrix(1.035,0,0,-1.035,134.13351,118.39741)"
           clip-path="url(#clipPath23)"
           id="path135" />
        <path
           d="m -2.46849,-7.59319 c 0,0.62612 -0.50757,1.13369 -1.13367,1.13369 -0.62611,0 -1.13368,-0.50757 -1.13368,-1.13369 0,-0.62609 0.50757,-1.13366 1.13368,-1.13366 0.6261,0 1.13367,0.50757 1.13367,1.13366 z"
           style="fill:#ff3333;fill-opacity:1;fill-rule:nonzero;stroke:#ff3333;stroke-width:1.19553;stroke-linecap:butt;stroke-linejoin:miter;stroke-miterlimit:10;stroke-dasharray:none;stroke-opacity:1"
           transform="matrix(1.035,0,0,-1.035,134.13351,118.39741)"
           clip-path="url(#clipPath24)"
           id="path136" />
        <path
           d="m 45.91518,13.95755 c 0,0.62611 -0.50756,1.13367 -1.13367,1.13367 -0.62611,0 -1.13367,-0.50756 -1.13367,-1.13367 0,-0.62611 0.50756,-1.13367 1.13367,-1.13367 0.62611,0 1.13367,0.50756 1.13367,1.13367 z"
           style="fill:#ff3333;fill-opacity:1;fill-rule:nonzero;stroke:#ff3333;stroke-width:1.19553;stroke-linecap:butt;stroke-linejoin:miter;stroke-miterlimit:10;stroke-dasharray:none;stroke-opacity:1"
           transform="matrix(1.035,0,0,-1.035,134.13351,118.39741)"
           clip-path="url(#clipPath25)"
           id="path137" />
        <path
           d="m 11.74123,8.48595 c 0,0.62611 -0.50757,1.13368 -1.13367,1.13368 -0.62611,0 -1.13368,-0.50757 -1.13368,-1.13368 0,-0.6261 0.50757,-1.13367 1.13368,-1.13367 0.6261,0 1.13367,0.50757 1.13367,1.13367 z"
           style="fill:#ff3333;fill-opacity:1;fill-rule:nonzero;stroke:#ff3333;stroke-width:1.19553;stroke-linecap:butt;stroke-linejoin:miter;stroke-miterlimit:10;stroke-dasharray:none;stroke-opacity:1"
           transform="matrix(1.035,0,0,-1.035,134.13351,118.39741)"
           clip-path="url(#clipPath26)"
           id="path138" />
        <path
           d="m 0.41652,6.95909 c 0,0.62611 -0.50754,1.13367 -1.13365,1.13367 -0.62612,0 -1.13367,-0.50756 -1.13367,-1.13367 0,-0.62611 0.50755,-1.13367 1.13367,-1.13367 0.62611,0 1.13365,0.50756 1.13365,1.13367 z"
           style="fill:#ff3333;fill-opacity:1;fill-rule:nonzero;stroke:#ff3333;stroke-width:1.19553;stroke-linecap:butt;stroke-linejoin:miter;stroke-miterlimit:10;stroke-dasharray:none;stroke-opacity:1"
           transform="matrix(1.035,0,0,-1.035,134.13351,118.39741)"
           clip-path="url(#clipPath27)"
           id="path139" />
        <path
           d="m -27.14738,4.94302 c 0,0.62612 -0.50756,1.13367 -1.13367,1.13367 -0.62612,0 -1.13367,-0.50755 -1.13367,-1.13367 0,-0.62611 0.50755,-1.13366 1.13367,-1.13366 0.62611,0 1.13367,0.50755 1.13367,1.13366 z"
           style="fill:#ff3333;fill-opacity:1;fill-rule:nonzero;stroke:#ff3333;stroke-width:1.19553;stroke-linecap:butt;stroke-linejoin:miter;stroke-miterlimit:10;stroke-dasharray:none;stroke-opacity:1"
           transform="matrix(1.035,0,0,-1.035,134.13351,118.39741)"
           clip-path="url(#clipPath28)"
           id="path140" />
        <path
           d="m 8.81639,19.0935 c 0,0.62612 -0.50755,1.13369 -1.13367,1.13369 -0.62611,0 -1.13366,-0.50757 -1.13366,-1.13369 0,-0.6261 0.50755,-1.13366 1.13366,-1.13366 0.62612,0 1.13367,0.50756 1.13367,1.13366 z"
           style="fill:#ff3333;fill-opacity:1;fill-rule:nonzero;stroke:#ff3333;stroke-width:1.19553;stroke-linecap:butt;stroke-linejoin:miter;stroke-miterlimit:10;stroke-dasharray:none;stroke-opacity:1"
           transform="matrix(1.035,0,0,-1.035,134.13351,118.39741)"
           clip-path="url(#clipPath29)"
           id="path141" />
        <path
           d="m 23.48982,-16.97624 c 0,0.62611 -0.50757,1.13368 -1.13368,1.13368 -0.6261,0 -1.13367,-0.50757 -1.13367,-1.13368 0,-0.6261 0.50757,-1.13367 1.13367,-1.13367 0.62611,0 1.13368,0.50757 1.13368,1.13367 z"
           style="fill:#ff3333;fill-opacity:1;fill-rule:nonzero;stroke:#ff3333;stroke-width:1.19553;stroke-linecap:butt;stroke-linejoin:miter;stroke-miterlimit:10;stroke-dasharray:none;stroke-opacity:1"
           transform="matrix(1.035,0,0,-1.035,134.13351,118.39741)"
           clip-path="url(#clipPath30)"
           id="path142" />
        <path
           d="m -1.28075,2.05194 c 0,0.62611 -0.50756,1.13367 -1.13366,1.13367 -0.62612,0 -1.13369,-0.50756 -1.13369,-1.13367 0,-0.62611 0.50757,-1.13367 1.13369,-1.13367 0.6261,0 1.13366,0.50756 1.13366,1.13367 z"
           style="fill:#ff3333;fill-opacity:1;fill-rule:nonzero;stroke:#ff3333;stroke-width:1.19553;stroke-linecap:butt;stroke-linejoin:miter;stroke-miterlimit:10;stroke-dasharray:none;stroke-opacity:1"
           transform="matrix(1.035,0,0,-1.035,134.13351,118.39741)"
           clip-path="url(#clipPath31)"
           id="path143" />
        <path
           d="m -41.8009,16.04065 c 0,0.62611 -0.50757,1.13367 -1.13367,1.13367 -0.62611,0 -1.13368,-0.50756 -1.13368,-1.13367 0,-0.62611 0.50757,-1.13367 1.13368,-1.13367 0.6261,0 1.13367,0.50756 1.13367,1.13367 z"
           style="fill:#ff3333;fill-opacity:1;fill-rule:nonzero;stroke:#ff3333;stroke-width:1.19553;stroke-linecap:butt;stroke-linejoin:miter;stroke-miterlimit:10;stroke-dasharray:none;stroke-opacity:1"
           transform="matrix(1.035,0,0,-1.035,134.13351,118.39741)"
           clip-path="url(#clipPath32)"
           id="path144" />
        <path
           d="m 37.73416,9.76323 c 0,0.62611 -0.50756,1.13368 -1.13366,1.13368 -0.62612,0 -1.13369,-0.50757 -1.13369,-1.13368 0,-0.6261 0.50757,-1.13367 1.13369,-1.13367 0.6261,0 1.13366,0.50757 1.13366,1.13367 z"
           style="fill:#ff3333;fill-opacity:1;fill-rule:nonzero;stroke:#ff3333;stroke-width:1.19553;stroke-linecap:butt;stroke-linejoin:miter;stroke-miterlimit:10;stroke-dasharray:none;stroke-opacity:1"
           transform="matrix(1.035,0,0,-1.035,134.13351,118.39741)"
           clip-path="url(#clipPath33)"
           id="path145" />
        <path
           d="m -9.39516,-0.1678 c 0,0.62608 -0.50755,1.13365 -1.13366,1.13365 -0.62612,0 -1.13367,-0.50757 -1.13367,-1.13365 0,-0.62611 0.50755,-1.13368 1.13367,-1.13368 0.62611,0 1.13366,0.50757 1.13366,1.13368 z"
           style="fill:#ff3333;fill-opacity:1;fill-rule:nonzero;stroke:#ff3333;stroke-width:1.19553;stroke-linecap:butt;stroke-linejoin:miter;stroke-miterlimit:10;stroke-dasharray:none;stroke-opacity:1"
           transform="matrix(1.035,0,0,-1.035,134.13351,118.39741)"
           clip-path="url(#clipPath34)"
           id="path146" />
        <path
           d="m -51.63249,0.12411 c 0,0.62612 -0.50757,1.13367 -1.13367,1.13367 -0.62611,0 -1.13368,-0.50755 -1.13368,-1.13367 0,-0.62609 0.50757,-1.13365 1.13368,-1.13365 0.6261,0 1.13367,0.50756 1.13367,1.13365 z"
           style="fill:#ff3333;fill-opacity:1;fill-rule:nonzero;stroke:#ff3333;stroke-width:1.19553;stroke-linecap:butt;stroke-linejoin:miter;stroke-miterlimit:10;stroke-dasharray:none;stroke-opacity:1"
           transform="matrix(1.035,0,0,-1.035,134.13351,118.39741)"
           clip-path="url(#clipPath35)"
           id="path147" />
        <path
           d="m 25.88089,-3.48883 c 0,0.62611 -0.50757,1.13367 -1.13367,1.13367 -0.62611,0 -1.13368,-0.50756 -1.13368,-1.13367 0,-0.62611 0.50757,-1.13367 1.13368,-1.13367 0.6261,0 1.13367,0.50756 1.13367,1.13367 z"
           style="fill:#ff3333;fill-opacity:1;fill-rule:nonzero;stroke:#ff3333;stroke-width:1.19553;stroke-linecap:butt;stroke-linejoin:miter;stroke-miterlimit:10;stroke-dasharray:none;stroke-opacity:1"
           transform="matrix(1.035,0,0,-1.035,134.13351,118.39741)"
           clip-path="url(#clipPath36)"
           id="path148" />
        <path
           d="m -50.52173,7.61395 c 0,0.6261 -0.50757,1.13367 -1.13367,1.13367 -0.62611,0 -1.13368,-0.50757 -1.13368,-1.13367 0,-0.62611 0.50757,-1.13368 1.13368,-1.13368 0.6261,0 1.13367,0.50757 1.13367,1.13368 z"
           style="fill:#ff3333;fill-opacity:1;fill-rule:nonzero;stroke:#ff3333;stroke-width:1.19553;stroke-linecap:butt;stroke-linejoin:miter;stroke-miterlimit:10;stroke-dasharray:none;stroke-opacity:1"
           transform="matrix(1.035,0,0,-1.035,134.13351,118.39741)"
           clip-path="url(#clipPath37)"
           id="path149" />
        <path
           d="m 50.59782,-2.17177 c 0,0.62612 -0.50755,1.13368 -1.13366,1.13368 -0.62612,0 -1.13367,-0.50756 -1.13367,-1.13368 0,-0.6261 0.50755,-1.13367 1.13367,-1.13367 0.62611,0 1.13366,0.50757 1.13366,1.13367 z"
           style="fill:#ff3333;fill-opacity:1;fill-rule:nonzero;stroke:#ff3333;stroke-width:1.19553;stroke-linecap:butt;stroke-linejoin:miter;stroke-miterlimit:10;stroke-dasharray:none;stroke-opacity:1"
           transform="matrix(1.035,0,0,-1.035,134.13351,118.39741)"
           clip-path="url(#clipPath38)"
           id="path150" />
        <path
           d="m 9.06381,14.3702 c 0,0.6261 -0.50757,1.13366 -1.13368,1.13366 -0.6261,0 -1.13367,-0.50756 -1.13367,-1.13366 0,-0.62612 0.50757,-1.13367 1.13367,-1.13367 0.62611,0 1.13368,0.50755 1.13368,1.13367 z"
           style="fill:#ff3333;fill-opacity:1;fill-rule:nonzero;stroke:#ff3333;stroke-width:1.19553;stroke-linecap:butt;stroke-linejoin:miter;stroke-miterlimit:10;stroke-dasharray:none;stroke-opacity:1"
           transform="matrix(1.035,0,0,-1.035,134.13351,118.39741)"
           clip-path="url(#clipPath39)"
           id="path151" />
        <path
           d="m 50.53728,18.59955 c 0,0.62611 -0.50756,1.13368 -1.13367,1.13368 -0.62611,0 -1.13367,-0.50757 -1.13367,-1.13368 0,-0.6261 0.50756,-1.13367 1.13367,-1.13367 0.62611,0 1.13367,0.50757 1.13367,1.13367 z"
           style="fill:#ff3333;fill-opacity:1;fill-rule:nonzero;stroke:#ff3333;stroke-width:1.19553;stroke-linecap:butt;stroke-linejoin:miter;stroke-miterlimit:10;stroke-dasharray:none;stroke-opacity:1"
           transform="matrix(1.035,0,0,-1.035,134.13351,118.39741)"
           clip-path="url(#clipPath40)"
           id="path152" />
        <path
           d="m 28.63702,0.79587 c 0,0.6261 -0.50756,1.13366 -1.13366,1.13366 -0.62612,0 -1.13369,-0.50756 -1.13369,-1.13366 0,-0.62612 0.50757,-1.13367 1.13369,-1.13367 0.6261,0 1.13366,0.50755 1.13366,1.13367 z"
           style="fill:#ff3333;fill-opacity:1;fill-rule:nonzero;stroke:#ff3333;stroke-width:1.19553;stroke-linecap:butt;stroke-linejoin:miter;stroke-miterlimit:10;stroke-dasharray:none;stroke-opacity:1"
           transform="matrix(1.035,0,0,-1.035,134.13351,118.39741)"
           clip-path="url(#clipPath41)"
           id="path153" />
        <path
           d="m -21.42056,-18.56409 c 0,0.62612 -0.50757,1.13367 -1.13368,1.13367 -0.6261,0 -1.13367,-0.50755 -1.13367,-1.13367 0,-0.62611 0.50757,-1.13366 1.13367,-1.13366 0.62611,0 1.13368,0.50755 1.13368,1.13366 z"
           style="fill:#ff3333;fill-opacity:1;fill-rule:nonzero;stroke:#ff3333;stroke-width:1.19553;stroke-linecap:butt;stroke-linejoin:miter;stroke-miterlimit:10;stroke-dasharray:none;stroke-opacity:1"
           transform="matrix(1.035,0,0,-1.035,134.13351,118.39741)"
           clip-path="url(#clipPath42)"
           id="path154" />
        <path
           d="m 48.9317,-15.4217 c 0,0.6261 -0.50757,1.13368 -1.13368,1.13368 -0.6261,0 -1.13367,-0.50758 -1.13367,-1.13368 0,-0.6261 0.50757,-1.13367 1.13367,-1.13367 0.62611,0 1.13368,0.50757 1.13368,1.13367 z"
           style="fill:#ff3333;fill-opacity:1;fill-rule:nonzero;stroke:#ff3333;stroke-width:1.19553;stroke-linecap:butt;stroke-linejoin:miter;stroke-miterlimit:10;stroke-dasharray:none;stroke-opacity:1"
           transform="matrix(1.035,0,0,-1.035,134.13351,118.39741)"
           clip-path="url(#clipPath43)"
           id="path155" />
        <path
           d="m 39.28697,-13.91646 c 0,0.6261 -0.50757,1.13367 -1.13368,1.13367 -0.6261,0 -1.13367,-0.50757 -1.13367,-1.13367 0,-0.62611 0.50757,-1.13368 1.13367,-1.13368 0.62611,0 1.13368,0.50757 1.13368,1.13368 z"
           style="fill:#ff3333;fill-opacity:1;fill-rule:nonzero;stroke:#ff3333;stroke-width:1.19553;stroke-linecap:butt;stroke-linejoin:miter;stroke-miterlimit:10;stroke-dasharray:none;stroke-opacity:1"
           transform="matrix(1.035,0,0,-1.035,134.13351,118.39741)"
           clip-path="url(#clipPath44)"
           id="path156" />
        <path
           d="m -22.20952,-2.53336 c 0,0.62612 -0.50757,1.13367 -1.13367,1.13367 -0.62611,0 -1.13368,-0.50755 -1.13368,-1.13367 0,-0.62611 0.50757,-1.13366 1.13368,-1.13366 0.6261,0 1.13367,0.50755 1.13367,1.13366 z"
           style="fill:#ff3333;fill-opacity:1;fill-rule:nonzero;stroke:#ff3333;stroke-width:1.19553;stroke-linecap:butt;stroke-linejoin:miter;stroke-miterlimit:10;stroke-dasharray:none;stroke-opacity:1"
           transform="matrix(1.035,0,0,-1.035,134.13351,118.39741)"
           clip-path="url(#clipPath45)"
           id="path157" />
        <path
           d="M 0,0 63.497,45.35506"
           style="fill:none;stroke:#9999ff;stroke-width:1.19553;stroke-linecap:butt;stroke-linejoin:miter;stroke-miterlimit:10;stroke-dasharray:none;stroke-opacity:1"
           transform="matrix(1.035,0,0,-1.035,134.13351,118.39741)"
           clip-path="url(#clipPath46)"
           id="path158" />
        <g
           aria-label="S&#10;2"
           transform="matrix(1.035,0,0,1.035,54.22323,171.03648)"
           clip-path="url(#clipPath47)"
           id="g160">
          <path
             d="M 4.694494,-4.122651 C 4.2114022,-4.2887138 3.3207017,-4.5906461 3.3207017,-5.3303804 c 0,-0.2415459 0.1207729,-0.5736715 0.317029,-0.6642512 0.09058,-0.060386 0.3925121,-0.1509662 0.7699275,-0.1509662 0.1358696,0 0.513285,0.015097 0.9661836,0.1358695 0.2415459,0.060386 0.513285,0.1358696 0.513285,0.5736715 0,0.120773 -0.04529,0.1962561 -0.04529,0.2566425 0,0.120773 0.1207729,0.1509662 0.1509661,0.1509662 0.120773,0 0.4076087,-0.04529 0.7850242,-0.317029 0.3019324,-0.2113526 0.4076087,-0.392512 0.4076087,-0.7246376 0,-0.317029 -0.1509662,-0.6189614 -0.5434783,-0.754831 -0.2415459,-0.075483 -0.6793478,-0.1811594 -1.2077294,-0.1811594 -1.6908213,0 -3.3967392,1.1322464 -3.3967392,2.294686 0,0.9208937 1.0869566,1.2832126 1.5247585,1.4341788 0.7246377,0.2415459 1.7210145,0.5887681 1.7210145,1.4492753 0,0.030193 0,0.7246377 -0.5736715,0.93599036 -0.4528986,0.1660628 -0.9812802,0.19625604 -1.1775363,0.19625604 -0.9208937,0 -1.9927536,-0.4679952 -1.9927536,-1.1624396 0,-0.1660628 0.030193,-0.2415459 0.060386,-0.2868358 0.3472222,-0.1811594 0.5585749,-0.4227053 0.5585749,-0.5585748 0,-0.09058 -0.09058,-0.120773 -0.1811594,-0.120773 -0.6189614,0 -1.72101454,0.6793478 -1.72101454,1.5851449 0,0.40760874 0.19625604,0.72463772 0.83031404,1.07185994 0.6340579,0.33212561 1.2077294,0.33212561 1.4341787,0.33212561 2.1437198,0 4.0609904,-1.28321255 4.0609904,-2.62681155 0,-0.9057971 -0.9359904,-1.3435991 -1.8870766,-1.6606281 z m 0,0"
             style="fill:#000000;fill-opacity:1;fill-rule:nonzero;stroke:none"
             id="path159" />
          <path
             d="M 11.167169,0.22517512 H 10.94072 C 10.910527,0.3761413 10.85014,0.78375 10.75956,0.85923309 c -0.06039,0.0452899 -0.603864,0.0452899 -0.694444,0.0452899 H 8.7819034 C 9.5065411,0.2553684 9.7631836,0.05911236 10.170792,-0.27301325 c 0.513285,-0.40760869 0.996377,-0.84541065 0.996377,-1.50966185 0,-0.8454106 -0.739734,-1.3586957 -1.6304347,-1.3586957 -0.8605072,0 -1.4492754,0.6038648 -1.4492754,1.2530194 0,0.3472222 0.3019324,0.392512 0.3774155,0.392512 0.1660628,0 0.3623188,-0.1207729 0.3623188,-0.3774154 0,-0.120773 -0.04529,-0.3623189 -0.4076087,-0.3623189 0.2113527,-0.4981884 0.6944445,-0.6491546 1.0114735,-0.6491546 0.694444,0 1.056763,0.5434783 1.056763,1.1020532 0,0.6189613 -0.422705,1.08695654 -0.6491543,1.34359905 L 8.162942,1.2215519 C 8.087459,1.2819389 8.087459,1.2970349 8.087459,1.4932911 h 2.868357 z m 0,0"
             style="fill:#000000;fill-opacity:1;fill-rule:nonzero;stroke:none"
             id="path160" />
        </g>
        <path
           d="M 0,0 -63.497,45.35506"
           style="fill:none;stroke:#33ff33;stroke-width:1.19553;stroke-linecap:butt;stroke-linejoin:miter;stroke-miterlimit:10;stroke-dasharray:none;stroke-opacity:1"
           transform="matrix(1.035,0,0,-1.035,134.13351,118.39741)"
           clip-path="url(#clipPath48)"
           id="path161" />
        <g
           aria-label="S&#10;3"
           transform="matrix(1.035,0,0,1.035,53.636385,75.686065)"
           clip-path="url(#clipPath49)"
           id="g163">
          <path
             d="M 4.6953708,-4.1199903 C 4.212279,-4.2860531 3.3215785,-4.5879855 3.3215785,-5.3277198 c 0,-0.2415459 0.1207729,-0.5736715 0.317029,-0.6642512 0.09058,-0.060386 0.3925121,-0.1509662 0.7699275,-0.1509662 0.1358696,0 0.513285,0.015097 0.9661836,0.1358696 0.2415459,0.060386 0.513285,0.1358695 0.513285,0.5736715 0,0.1207729 -0.04529,0.196256 -0.04529,0.2566425 0,0.1207729 0.1207729,0.1509662 0.1509662,0.1509662 0.1207729,0 0.4076086,-0.04529 0.7850241,-0.317029 0.3019324,-0.2113527 0.4076087,-0.3925121 0.4076087,-0.7246377 0,-0.317029 -0.1509662,-0.6189614 -0.5434783,-0.7548309 -0.2415459,-0.075483 -0.6793478,-0.1811594 -1.2077294,-0.1811594 -1.6908213,0 -3.3967392,1.1322463 -3.3967392,2.2946859 0,0.9208938 1.0869566,1.2832126 1.5247585,1.4341788 0.7246377,0.2415459 1.7210145,0.5887681 1.7210145,1.4492754 0,0.030193 0,0.7246376 -0.5736715,0.93599029 -0.4528986,0.1660628 -0.9812802,0.19625604 -1.1775362,0.19625604 -0.9208938,0 -1.9927537,-0.46799513 -1.9927537,-1.16243963 0,-0.1660628 0.030193,-0.2415459 0.060387,-0.2868357 0.3472222,-0.1811595 0.5585749,-0.4227053 0.5585749,-0.5585749 0,-0.09058 -0.09058,-0.120773 -0.1811594,-0.120773 -0.6189614,0 -1.72101452,0.6793479 -1.72101452,1.585145 0,0.40760866 0.19625603,0.72463765 0.83031402,1.07185987 0.634058,0.33212561 1.2077295,0.33212561 1.4341787,0.33212561 2.1437198,0 4.0609904,-1.28321258 4.0609904,-2.62681158 0,-0.9057971 -0.9359904,-1.3435991 -1.8870776,-1.660628 z m 0,0"
             style="fill:#000000;fill-opacity:1;fill-rule:nonzero;stroke:none"
             id="path162" />
          <path
             d="m 9.5489336,-0.82892754 c 0.5434784,0 0.9359904,0.37741546 0.9359904,1.11714976 0,0.86050728 -0.4981885,1.11714978 -0.9057972,1.11714978 -0.2868357,0 -0.8907005,-0.075483 -1.1926328,-0.48309181 0.3321256,-0.0150966 0.4076087,-0.24154589 0.4076087,-0.39251207 0,-0.22644928 -0.1660628,-0.37741546 -0.3774155,-0.37741546 -0.196256,0 -0.3925121,0.12077294 -0.3925121,0.40760869 0,0.64915455 0.7246377,1.07185995 1.5700483,1.07185995 0.9661836,0 1.6304346,-0.64915463 1.6304346,-1.34359908 0,-0.54347826 -0.437802,-1.08695652 -1.207729,-1.25301932 0.739734,-0.2566425 0.996377,-0.7850242 0.996377,-1.2077295 0,-0.5585748 -0.634058,-0.9661835 -1.403986,-0.9661835 -0.7699275,0 -1.3737922,0.3774154 -1.3737922,0.9359903 0,0.2415459 0.1509662,0.3774155 0.3623188,0.3774155 0.2264493,0 0.3623189,-0.1660628 0.3623189,-0.3623189 0,-0.196256 -0.1358696,-0.3472222 -0.3623189,-0.3623188 0.2415459,-0.3019324 0.7246377,-0.3774155 0.9812802,-0.3774155 0.317029,0 0.7548312,0.1509662 0.7548312,0.7548309 0,0.2868358 -0.09058,0.6189614 -0.271739,0.830314 -0.2264497,0.2717392 -0.4227057,0.2717392 -0.7699279,0.3019324 -0.1811595,0.015097 -0.1962561,0.015097 -0.2264493,0.015097 -0.015097,0 -0.075483,0.015097 -0.075483,0.0905797 0,0.10567632 0.060386,0.10567632 0.1811594,0.10567632 z m 0,0"
             style="fill:#000000;fill-opacity:1;fill-rule:nonzero;stroke:none"
             id="path163" />
        </g>
        <path
           d="m 7.51855,4.56042 c 0,0.6261 -0.50756,1.13367 -1.13366,1.13367 -0.62612,0 -1.13369,-0.50757 -1.13369,-1.13367 0,-0.62611 0.50757,-1.13368 1.13369,-1.13368 0.6261,0 1.13366,0.50757 1.13366,1.13368 z"
           style="fill:#3333ff;fill-opacity:1;fill-rule:nonzero;stroke:#3333ff;stroke-width:1.19553;stroke-linecap:butt;stroke-linejoin:miter;stroke-miterlimit:10;stroke-dasharray:none;stroke-opacity:1"
           transform="matrix(1.035,0,0,-1.035,134.13351,118.39741)"
           clip-path="url(#clipPath50)"
           id="path164" />
        <path
           d="m 49.39386,34.47137 c 0,0.62612 -0.50756,1.13367 -1.13366,1.13367 -0.62612,0 -1.13367,-0.50755 -1.13367,-1.13367 0,-0.62611 0.50755,-1.13367 1.13367,-1.13367 0.6261,0 1.13366,0.50756 1.13366,1.13367 z"
           style="fill:#3333ff;fill-opacity:1;fill-rule:nonzero;stroke:#3333ff;stroke-width:1.19553;stroke-linecap:butt;stroke-linejoin:miter;stroke-miterlimit:10;stroke-dasharray:none;stroke-opacity:1"
           transform="matrix(1.035,0,0,-1.035,134.13351,118.39741)"
           clip-path="url(#clipPath51)"
           id="path165" />
        <path
           d="m 36.88359,25.53546 c 0,0.6261 -0.50755,1.13367 -1.13367,1.13367 -0.62611,0 -1.13366,-0.50757 -1.13366,-1.13367 0,-0.62611 0.50755,-1.13368 1.13366,-1.13368 0.62612,0 1.13367,0.50757 1.13367,1.13368 z"
           style="fill:#3333ff;fill-opacity:1;fill-rule:nonzero;stroke:#3333ff;stroke-width:1.19553;stroke-linecap:butt;stroke-linejoin:miter;stroke-miterlimit:10;stroke-dasharray:none;stroke-opacity:1"
           transform="matrix(1.035,0,0,-1.035,134.13351,118.39741)"
           clip-path="url(#clipPath52)"
           id="path166" />
        <path
           d="m 57.4366,40.2162 c 0,0.62612 -0.50757,1.13367 -1.13368,1.13367 -0.6261,0 -1.13367,-0.50755 -1.13367,-1.13367 0,-0.62611 0.50757,-1.13367 1.13367,-1.13367 0.62611,0 1.13368,0.50756 1.13368,1.13367 z"
           style="fill:#3333ff;fill-opacity:1;fill-rule:nonzero;stroke:#3333ff;stroke-width:1.19553;stroke-linecap:butt;stroke-linejoin:miter;stroke-miterlimit:10;stroke-dasharray:none;stroke-opacity:1"
           transform="matrix(1.035,0,0,-1.035,134.13351,118.39741)"
           clip-path="url(#clipPath53)"
           id="path167" />
        <path
           d="m 24.59618,16.75873 c 0,0.62611 -0.50757,1.13367 -1.13368,1.13367 -0.6261,0 -1.13367,-0.50756 -1.13367,-1.13367 0,-0.62612 0.50757,-1.13367 1.13367,-1.13367 0.62611,0 1.13368,0.50755 1.13368,1.13367 z"
           style="fill:#3333ff;fill-opacity:1;fill-rule:nonzero;stroke:#3333ff;stroke-width:1.19553;stroke-linecap:butt;stroke-linejoin:miter;stroke-miterlimit:10;stroke-dasharray:none;stroke-opacity:1"
           transform="matrix(1.035,0,0,-1.035,134.13351,118.39741)"
           clip-path="url(#clipPath54)"
           id="path168" />
        <path
           d="m 24.67757,16.81686 c 0,0.62612 -0.50757,1.13367 -1.13369,1.13367 -0.62609,0 -1.13366,-0.50755 -1.13366,-1.13367 0,-0.62611 0.50757,-1.13368 1.13366,-1.13368 0.62612,0 1.13369,0.50757 1.13369,1.13368 z"
           style="fill:#3333ff;fill-opacity:1;fill-rule:nonzero;stroke:#3333ff;stroke-width:1.19553;stroke-linecap:butt;stroke-linejoin:miter;stroke-miterlimit:10;stroke-dasharray:none;stroke-opacity:1"
           transform="matrix(1.035,0,0,-1.035,134.13351,118.39741)"
           clip-path="url(#clipPath55)"
           id="path169" />
        <path
           d="m 52.10577,36.40848 c 0,0.6261 -0.50757,1.13366 -1.13367,1.13366 -0.6261,0 -1.13368,-0.50756 -1.13368,-1.13366 0,-0.62612 0.50758,-1.13368 1.13368,-1.13368 0.6261,0 1.13367,0.50756 1.13367,1.13368 z"
           style="fill:#3333ff;fill-opacity:1;fill-rule:nonzero;stroke:#3333ff;stroke-width:1.19553;stroke-linecap:butt;stroke-linejoin:miter;stroke-miterlimit:10;stroke-dasharray:none;stroke-opacity:1"
           transform="matrix(1.035,0,0,-1.035,134.13351,118.39741)"
           clip-path="url(#clipPath56)"
           id="path170" />
        <path
           d="m 11.0521,7.08437 c 0,0.62611 -0.50757,1.13368 -1.13369,1.13368 -0.6261,0 -1.13367,-0.50757 -1.13367,-1.13368 0,-0.6261 0.50757,-1.13367 1.13367,-1.13367 0.62612,0 1.13369,0.50757 1.13369,1.13367 z"
           style="fill:#3333ff;fill-opacity:1;fill-rule:nonzero;stroke:#3333ff;stroke-width:1.19553;stroke-linecap:butt;stroke-linejoin:miter;stroke-miterlimit:10;stroke-dasharray:none;stroke-opacity:1"
           transform="matrix(1.035,0,0,-1.035,134.13351,118.39741)"
           clip-path="url(#clipPath57)"
           id="path171" />
        <path
           d="m 35.3082,24.41017 c 0,0.62612 -0.50757,1.13368 -1.13367,1.13368 -0.62611,0 -1.13368,-0.50756 -1.13368,-1.13368 0,-0.62611 0.50757,-1.13367 1.13368,-1.13367 0.6261,0 1.13367,0.50756 1.13367,1.13367 z"
           style="fill:#3333ff;fill-opacity:1;fill-rule:nonzero;stroke:#3333ff;stroke-width:1.19553;stroke-linecap:butt;stroke-linejoin:miter;stroke-miterlimit:10;stroke-dasharray:none;stroke-opacity:1"
           transform="matrix(1.035,0,0,-1.035,134.13351,118.39741)"
           clip-path="url(#clipPath58)"
           id="path172" />
        <path
           d="m 31.85411,21.94296 c 0,0.62612 -0.50757,1.13368 -1.13367,1.13368 -0.62611,0 -1.13368,-0.50756 -1.13368,-1.13368 0,-0.6261 0.50757,-1.13366 1.13368,-1.13366 0.6261,0 1.13367,0.50756 1.13367,1.13366 z"
           style="fill:#3333ff;fill-opacity:1;fill-rule:nonzero;stroke:#3333ff;stroke-width:1.19553;stroke-linecap:butt;stroke-linejoin:miter;stroke-miterlimit:10;stroke-dasharray:none;stroke-opacity:1"
           transform="matrix(1.035,0,0,-1.035,134.13351,118.39741)"
           clip-path="url(#clipPath59)"
           id="path173" />
        <path
           d="m 9.71405,6.12865 c 0,0.6261 -0.50755,1.13366 -1.13367,1.13366 -0.62611,0 -1.13366,-0.50756 -1.13366,-1.13366 0,-0.62612 0.50755,-1.13369 1.13366,-1.13369 0.62612,0 1.13367,0.50757 1.13367,1.13369 z"
           style="fill:#3333ff;fill-opacity:1;fill-rule:nonzero;stroke:#3333ff;stroke-width:1.19553;stroke-linecap:butt;stroke-linejoin:miter;stroke-miterlimit:10;stroke-dasharray:none;stroke-opacity:1"
           transform="matrix(1.035,0,0,-1.035,134.13351,118.39741)"
           clip-path="url(#clipPath60)"
           id="path174" />
        <path
           d="m 26.0311,17.78368 c 0,0.62611 -0.50757,1.13366 -1.13367,1.13366 -0.62611,0 -1.13368,-0.50755 -1.13368,-1.13366 0,-0.62612 0.50757,-1.13367 1.13368,-1.13367 0.6261,0 1.13367,0.50755 1.13367,1.13367 z"
           style="fill:#3333ff;fill-opacity:1;fill-rule:nonzero;stroke:#3333ff;stroke-width:1.19553;stroke-linecap:butt;stroke-linejoin:miter;stroke-miterlimit:10;stroke-dasharray:none;stroke-opacity:1"
           transform="matrix(1.035,0,0,-1.035,134.13351,118.39741)"
           clip-path="url(#clipPath61)"
           id="path175" />
        <path
           d="m 51.62521,36.0652 c 0,0.6261 -0.50756,1.13367 -1.13366,1.13367 -0.62612,0 -1.13369,-0.50757 -1.13369,-1.13367 0,-0.62611 0.50757,-1.13368 1.13369,-1.13368 0.6261,0 1.13366,0.50757 1.13366,1.13368 z"
           style="fill:#3333ff;fill-opacity:1;fill-rule:nonzero;stroke:#3333ff;stroke-width:1.19553;stroke-linecap:butt;stroke-linejoin:miter;stroke-miterlimit:10;stroke-dasharray:none;stroke-opacity:1"
           transform="matrix(1.035,0,0,-1.035,134.13351,118.39741)"
           clip-path="url(#clipPath62)"
           id="path176" />
        <path
           d="m 6.0381,3.50296 c 0,0.6261 -0.50757,1.13367 -1.13368,1.13367 -0.6261,0 -1.13367,-0.50757 -1.13367,-1.13367 0,-0.62611 0.50757,-1.13368 1.13367,-1.13368 0.62611,0 1.13368,0.50757 1.13368,1.13368 z"
           style="fill:#3333ff;fill-opacity:1;fill-rule:nonzero;stroke:#3333ff;stroke-width:1.19553;stroke-linecap:butt;stroke-linejoin:miter;stroke-miterlimit:10;stroke-dasharray:none;stroke-opacity:1"
           transform="matrix(1.035,0,0,-1.035,134.13351,118.39741)"
           clip-path="url(#clipPath63)"
           id="path177" />
        <path
           d="m 29.90955,20.55402 c 0,0.62609 -0.50755,1.13366 -1.13367,1.13366 -0.62611,0 -1.13367,-0.50757 -1.13367,-1.13366 0,-0.62612 0.50756,-1.13369 1.13367,-1.13369 0.62612,0 1.13367,0.50757 1.13367,1.13369 z"
           style="fill:#3333ff;fill-opacity:1;fill-rule:nonzero;stroke:#3333ff;stroke-width:1.19553;stroke-linecap:butt;stroke-linejoin:miter;stroke-miterlimit:10;stroke-dasharray:none;stroke-opacity:1"
           transform="matrix(1.035,0,0,-1.035,134.13351,118.39741)"
           clip-path="url(#clipPath64)"
           id="path178" />
        <path
           d="m -55.68098,-40.58159 c 0,0.62612 -0.50756,1.13369 -1.13367,1.13369 -0.62612,0 -1.13367,-0.50757 -1.13367,-1.13369 0,-0.6261 0.50755,-1.13367 1.13367,-1.13367 0.62611,0 1.13367,0.50757 1.13367,1.13367 z"
           style="fill:#3333ff;fill-opacity:1;fill-rule:nonzero;stroke:#3333ff;stroke-width:1.19553;stroke-linecap:butt;stroke-linejoin:miter;stroke-miterlimit:10;stroke-dasharray:none;stroke-opacity:1"
           transform="matrix(1.035,0,0,-1.035,134.13351,118.39741)"
           clip-path="url(#clipPath65)"
           id="path179" />
        <path
           d="m -38.93184,-28.6179 c 0,0.62611 -0.50755,1.13368 -1.13366,1.13368 -0.62612,0 -1.13367,-0.50757 -1.13367,-1.13368 0,-0.6261 0.50755,-1.13367 1.13367,-1.13367 0.62611,0 1.13366,0.50757 1.13366,1.13367 z"
           style="fill:#3333ff;fill-opacity:1;fill-rule:nonzero;stroke:#3333ff;stroke-width:1.19553;stroke-linecap:butt;stroke-linejoin:miter;stroke-miterlimit:10;stroke-dasharray:none;stroke-opacity:1"
           transform="matrix(1.035,0,0,-1.035,134.13351,118.39741)"
           clip-path="url(#clipPath66)"
           id="path180" />
        <path
           d="m -43.93614,-32.19241 c 0,0.6261 -0.50757,1.13366 -1.13367,1.13366 -0.62611,0 -1.13368,-0.50756 -1.13368,-1.13366 0,-0.62612 0.50757,-1.13369 1.13368,-1.13369 0.6261,0 1.13367,0.50757 1.13367,1.13369 z"
           style="fill:#3333ff;fill-opacity:1;fill-rule:nonzero;stroke:#3333ff;stroke-width:1.19553;stroke-linecap:butt;stroke-linejoin:miter;stroke-miterlimit:10;stroke-dasharray:none;stroke-opacity:1"
           transform="matrix(1.035,0,0,-1.035,134.13351,118.39741)"
           clip-path="url(#clipPath67)"
           id="path181" />
        <path
           d="m -35.71512,-26.32025 c 0,0.6261 -0.50757,1.13367 -1.13368,1.13367 -0.6261,0 -1.13367,-0.50757 -1.13367,-1.13367 0,-0.62612 0.50757,-1.13368 1.13367,-1.13368 0.62611,0 1.13368,0.50756 1.13368,1.13368 z"
           style="fill:#3333ff;fill-opacity:1;fill-rule:nonzero;stroke:#3333ff;stroke-width:1.19553;stroke-linecap:butt;stroke-linejoin:miter;stroke-miterlimit:10;stroke-dasharray:none;stroke-opacity:1"
           transform="matrix(1.035,0,0,-1.035,134.13351,118.39741)"
           clip-path="url(#clipPath68)"
           id="path182" />
        <path
           d="m -48.85031,-35.70255 c 0,0.62612 -0.50757,1.13369 -1.13369,1.13369 -0.62609,0 -1.13366,-0.50757 -1.13366,-1.13369 0,-0.62609 0.50757,-1.13366 1.13366,-1.13366 0.62612,0 1.13369,0.50757 1.13369,1.13366 z"
           style="fill:#3333ff;fill-opacity:1;fill-rule:nonzero;stroke:#3333ff;stroke-width:1.19553;stroke-linecap:butt;stroke-linejoin:miter;stroke-miterlimit:10;stroke-dasharray:none;stroke-opacity:1"
           transform="matrix(1.035,0,0,-1.035,134.13351,118.39741)"
           clip-path="url(#clipPath69)"
           id="path183" />
        <path
           d="m -48.81738,-35.679 c 0,0.6261 -0.50756,1.13367 -1.13367,1.13367 -0.62611,0 -1.13367,-0.50757 -1.13367,-1.13367 0,-0.62611 0.50756,-1.13368 1.13367,-1.13368 0.62611,0 1.13367,0.50757 1.13367,1.13368 z"
           style="fill:#3333ff;fill-opacity:1;fill-rule:nonzero;stroke:#3333ff;stroke-width:1.19553;stroke-linecap:butt;stroke-linejoin:miter;stroke-miterlimit:10;stroke-dasharray:none;stroke-opacity:1"
           transform="matrix(1.035,0,0,-1.035,134.13351,118.39741)"
           clip-path="url(#clipPath70)"
           id="path184" />
        <path
           d="m -37.84666,-27.84279 c 0,0.6261 -0.50757,1.13367 -1.13369,1.13367 -0.6261,0 -1.13366,-0.50757 -1.13366,-1.13367 0,-0.62611 0.50756,-1.13368 1.13366,-1.13368 0.62612,0 1.13369,0.50757 1.13369,1.13368 z"
           style="fill:#3333ff;fill-opacity:1;fill-rule:nonzero;stroke:#3333ff;stroke-width:1.19553;stroke-linecap:butt;stroke-linejoin:miter;stroke-miterlimit:10;stroke-dasharray:none;stroke-opacity:1"
           transform="matrix(1.035,0,0,-1.035,134.13351,118.39741)"
           clip-path="url(#clipPath71)"
           id="path185" />
        <path
           d="m -54.26736,-39.57187 c 0,0.62611 -0.50756,1.13367 -1.13367,1.13367 -0.62612,0 -1.13367,-0.50756 -1.13367,-1.13367 0,-0.62611 0.50755,-1.13367 1.13367,-1.13367 0.62611,0 1.13367,0.50756 1.13367,1.13367 z"
           style="fill:#3333ff;fill-opacity:1;fill-rule:nonzero;stroke:#3333ff;stroke-width:1.19553;stroke-linecap:butt;stroke-linejoin:miter;stroke-miterlimit:10;stroke-dasharray:none;stroke-opacity:1"
           transform="matrix(1.035,0,0,-1.035,134.13351,118.39741)"
           clip-path="url(#clipPath72)"
           id="path186" />
        <path
           d="m -44.56493,-32.64154 c 0,0.6261 -0.50757,1.13367 -1.13367,1.13367 -0.6261,0 -1.13368,-0.50757 -1.13368,-1.13367 0,-0.62611 0.50758,-1.13368 1.13368,-1.13368 0.6261,0 1.13367,0.50757 1.13367,1.13368 z"
           style="fill:#3333ff;fill-opacity:1;fill-rule:nonzero;stroke:#3333ff;stroke-width:1.19553;stroke-linecap:butt;stroke-linejoin:miter;stroke-miterlimit:10;stroke-dasharray:none;stroke-opacity:1"
           transform="matrix(1.035,0,0,-1.035,134.13351,118.39741)"
           clip-path="url(#clipPath73)"
           id="path187" />
        <path
           d="m -45.94656,-33.62842 c 0,0.6261 -0.50756,1.13367 -1.13367,1.13367 -0.62611,0 -1.13367,-0.50757 -1.13367,-1.13367 0,-0.62611 0.50756,-1.13368 1.13367,-1.13368 0.62611,0 1.13367,0.50757 1.13367,1.13368 z"
           style="fill:#3333ff;fill-opacity:1;fill-rule:nonzero;stroke:#3333ff;stroke-width:1.19553;stroke-linecap:butt;stroke-linejoin:miter;stroke-miterlimit:10;stroke-dasharray:none;stroke-opacity:1"
           transform="matrix(1.035,0,0,-1.035,134.13351,118.39741)"
           clip-path="url(#clipPath74)"
           id="path188" />
        <path
           d="m -54.80316,-39.95457 c 0,0.62611 -0.50755,1.13367 -1.13367,1.13367 -0.62611,0 -1.13367,-0.50756 -1.13367,-1.13367 0,-0.62612 0.50756,-1.13367 1.13367,-1.13367 0.62612,0 1.13367,0.50755 1.13367,1.13367 z"
           style="fill:#3333ff;fill-opacity:1;fill-rule:nonzero;stroke:#3333ff;stroke-width:1.19553;stroke-linecap:butt;stroke-linejoin:miter;stroke-miterlimit:10;stroke-dasharray:none;stroke-opacity:1"
           transform="matrix(1.035,0,0,-1.035,134.13351,118.39741)"
           clip-path="url(#clipPath75)"
           id="path189" />
        <path
           d="m -48.27576,-35.29214 c 0,0.62611 -0.50757,1.13366 -1.13368,1.13366 -0.6261,0 -1.13366,-0.50755 -1.13366,-1.13366 0,-0.62612 0.50756,-1.13367 1.13366,-1.13367 0.62611,0 1.13368,0.50755 1.13368,1.13367 z"
           style="fill:#3333ff;fill-opacity:1;fill-rule:nonzero;stroke:#3333ff;stroke-width:1.19553;stroke-linecap:butt;stroke-linejoin:miter;stroke-miterlimit:10;stroke-dasharray:none;stroke-opacity:1"
           transform="matrix(1.035,0,0,-1.035,134.13351,118.39741)"
           clip-path="url(#clipPath76)"
           id="path190" />
        <path
           d="m -38.03949,-27.98051 c 0,0.62611 -0.50757,1.13368 -1.13368,1.13368 -0.6261,0 -1.13367,-0.50757 -1.13367,-1.13368 0,-0.6261 0.50757,-1.13367 1.13367,-1.13367 0.62611,0 1.13368,0.50757 1.13368,1.13367 z"
           style="fill:#3333ff;fill-opacity:1;fill-rule:nonzero;stroke:#3333ff;stroke-width:1.19553;stroke-linecap:butt;stroke-linejoin:miter;stroke-miterlimit:10;stroke-dasharray:none;stroke-opacity:1"
           transform="matrix(1.035,0,0,-1.035,134.13351,118.39741)"
           clip-path="url(#clipPath77)"
           id="path191" />
        <path
           d="m -56.27296,-41.00444 c 0,0.62611 -0.50756,1.13367 -1.13367,1.13367 -0.62612,0 -1.13367,-0.50756 -1.13367,-1.13367 0,-0.62611 0.50755,-1.13366 1.13367,-1.13366 0.62611,0 1.13367,0.50755 1.13367,1.13366 z"
           style="fill:#3333ff;fill-opacity:1;fill-rule:nonzero;stroke:#3333ff;stroke-width:1.19553;stroke-linecap:butt;stroke-linejoin:miter;stroke-miterlimit:10;stroke-dasharray:none;stroke-opacity:1"
           transform="matrix(1.035,0,0,-1.035,134.13351,118.39741)"
           clip-path="url(#clipPath78)"
           id="path192" />
        <path
           d="m -46.72458,-34.18414 c 0,0.6261 -0.50757,1.13366 -1.13367,1.13366 -0.62611,0 -1.13368,-0.50756 -1.13368,-1.13366 0,-0.62612 0.50757,-1.13369 1.13368,-1.13369 0.6261,0 1.13367,0.50757 1.13367,1.13369 z"
           style="fill:#3333ff;fill-opacity:1;fill-rule:nonzero;stroke:#3333ff;stroke-width:1.19553;stroke-linecap:butt;stroke-linejoin:miter;stroke-miterlimit:10;stroke-dasharray:none;stroke-opacity:1"
           transform="matrix(1.035,0,0,-1.035,134.13351,118.39741)"
           clip-path="url(#clipPath79)"
           id="path193" />
        <path
           d="m -41.82753,30.68633 c 0,0.62611 -0.50757,1.13366 -1.13368,1.13366 -0.6261,0 -1.13367,-0.50755 -1.13367,-1.13366 0,-0.62612 0.50757,-1.13367 1.13367,-1.13367 0.62611,0 1.13368,0.50755 1.13368,1.13367 z"
           style="fill:#3edb8b;fill-opacity:1;fill-rule:nonzero;stroke:#3edb8b;stroke-width:1.19553;stroke-linecap:butt;stroke-linejoin:miter;stroke-miterlimit:10;stroke-dasharray:none;stroke-opacity:1"
           transform="matrix(1.035,0,0,-1.035,134.13351,118.39741)"
           clip-path="url(#clipPath80)"
           id="path194" />
        <path
           d="m -9.80582,7.81366 c 0,0.6261 -0.50757,1.13367 -1.13366,1.13367 -0.62612,0 -1.13369,-0.50757 -1.13369,-1.13367 0,-0.62611 0.50757,-1.13368 1.13369,-1.13368 0.62609,0 1.13366,0.50757 1.13366,1.13368 z"
           style="fill:#3edb8b;fill-opacity:1;fill-rule:nonzero;stroke:#3edb8b;stroke-width:1.19553;stroke-linecap:butt;stroke-linejoin:miter;stroke-miterlimit:10;stroke-dasharray:none;stroke-opacity:1"
           transform="matrix(1.035,0,0,-1.035,134.13351,118.39741)"
           clip-path="url(#clipPath81)"
           id="path195" />
        <path
           d="m -33.45247,24.70413 c 0,0.62612 -0.50755,1.13368 -1.13367,1.13368 -0.62611,0 -1.13366,-0.50756 -1.13366,-1.13368 0,-0.6261 0.50755,-1.13366 1.13366,-1.13366 0.62612,0 1.13367,0.50756 1.13367,1.13366 z"
           style="fill:#3edb8b;fill-opacity:1;fill-rule:nonzero;stroke:#3edb8b;stroke-width:1.19553;stroke-linecap:butt;stroke-linejoin:miter;stroke-miterlimit:10;stroke-dasharray:none;stroke-opacity:1"
           transform="matrix(1.035,0,0,-1.035,134.13351,118.39741)"
           clip-path="url(#clipPath82)"
           id="path196" />
        <path
           d="m -14.63185,11.26083 c 0,0.6261 -0.50757,1.13367 -1.13367,1.13367 -0.62611,0 -1.13368,-0.50757 -1.13368,-1.13367 0,-0.62611 0.50757,-1.13368 1.13368,-1.13368 0.6261,0 1.13367,0.50757 1.13367,1.13368 z"
           style="fill:#3edb8b;fill-opacity:1;fill-rule:nonzero;stroke:#3edb8b;stroke-width:1.19553;stroke-linecap:butt;stroke-linejoin:miter;stroke-miterlimit:10;stroke-dasharray:none;stroke-opacity:1"
           transform="matrix(1.035,0,0,-1.035,134.13351,118.39741)"
           clip-path="url(#clipPath83)"
           id="path197" />
        <path
           d="m -20.9209,15.75299 c 0,0.62611 -0.50755,1.13368 -1.13367,1.13368 -0.62611,0 -1.13366,-0.50757 -1.13366,-1.13368 0,-0.6261 0.50755,-1.13367 1.13366,-1.13367 0.62612,0 1.13367,0.50757 1.13367,1.13367 z"
           style="fill:#3edb8b;fill-opacity:1;fill-rule:nonzero;stroke:#3edb8b;stroke-width:1.19553;stroke-linecap:butt;stroke-linejoin:miter;stroke-miterlimit:10;stroke-dasharray:none;stroke-opacity:1"
           transform="matrix(1.035,0,0,-1.035,134.13351,118.39741)"
           clip-path="url(#clipPath84)"
           id="path198" />
        <path
           d="m -7.0813,5.86757 c 0,0.62611 -0.50757,1.13368 -1.13368,1.13368 -0.6261,0 -1.13367,-0.50757 -1.13367,-1.13368 0,-0.6261 0.50757,-1.13367 1.13367,-1.13367 0.62611,0 1.13368,0.50757 1.13368,1.13367 z"
           style="fill:#3edb8b;fill-opacity:1;fill-rule:nonzero;stroke:#3edb8b;stroke-width:1.19553;stroke-linecap:butt;stroke-linejoin:miter;stroke-miterlimit:10;stroke-dasharray:none;stroke-opacity:1"
           transform="matrix(1.035,0,0,-1.035,134.13351,118.39741)"
           clip-path="url(#clipPath85)"
           id="path199" />
        <path
           d="m -44.36989,32.5023 c 0,0.62612 -0.50755,1.13369 -1.13367,1.13369 -0.62611,0 -1.13366,-0.50757 -1.13366,-1.13369 0,-0.6261 0.50755,-1.13366 1.13366,-1.13366 0.62612,0 1.13367,0.50756 1.13367,1.13366 z"
           style="fill:#3edb8b;fill-opacity:1;fill-rule:nonzero;stroke:#3edb8b;stroke-width:1.19553;stroke-linecap:butt;stroke-linejoin:miter;stroke-miterlimit:10;stroke-dasharray:none;stroke-opacity:1"
           transform="matrix(1.035,0,0,-1.035,134.13351,118.39741)"
           clip-path="url(#clipPath86)"
           id="path200" />
        <path
           d="m -19.73787,14.90799 c 0,0.62611 -0.50757,1.13368 -1.13368,1.13368 -0.6261,0 -1.13367,-0.50757 -1.13367,-1.13368 0,-0.6261 0.50757,-1.13367 1.13367,-1.13367 0.62611,0 1.13368,0.50757 1.13368,1.13367 z"
           style="fill:#3edb8b;fill-opacity:1;fill-rule:nonzero;stroke:#3edb8b;stroke-width:1.19553;stroke-linecap:butt;stroke-linejoin:miter;stroke-miterlimit:10;stroke-dasharray:none;stroke-opacity:1"
           transform="matrix(1.035,0,0,-1.035,134.13351,118.39741)"
           clip-path="url(#clipPath87)"
           id="path201" />
        <path
           d="m -8.29822,6.73682 c 0,0.6261 -0.50757,1.13366 -1.13368,1.13366 -0.6261,0 -1.13367,-0.50756 -1.13367,-1.13366 0,-0.62612 0.50757,-1.13369 1.13367,-1.13369 0.62611,0 1.13368,0.50757 1.13368,1.13369 z"
           style="fill:#3edb8b;fill-opacity:1;fill-rule:nonzero;stroke:#3edb8b;stroke-width:1.19553;stroke-linecap:butt;stroke-linejoin:miter;stroke-miterlimit:10;stroke-dasharray:none;stroke-opacity:1"
           transform="matrix(1.035,0,0,-1.035,134.13351,118.39741)"
           clip-path="url(#clipPath88)"
           id="path202" />
        <path
           d="m -25.27507,18.86314 c 0,0.6261 -0.50757,1.13367 -1.13368,1.13367 -0.6261,0 -1.13367,-0.50757 -1.13367,-1.13367 0,-0.62611 0.50757,-1.13368 1.13367,-1.13368 0.62611,0 1.13368,0.50757 1.13368,1.13368 z"
           style="fill:#3edb8b;fill-opacity:1;fill-rule:nonzero;stroke:#3edb8b;stroke-width:1.19553;stroke-linecap:butt;stroke-linejoin:miter;stroke-miterlimit:10;stroke-dasharray:none;stroke-opacity:1"
           transform="matrix(1.035,0,0,-1.035,134.13351,118.39741)"
           clip-path="url(#clipPath89)"
           id="path203" />
        <path
           d="m -11.99164,9.37494 c 0,0.62611 -0.50755,1.13368 -1.13366,1.13368 -0.62612,0 -1.13367,-0.50757 -1.13367,-1.13368 0,-0.6261 0.50755,-1.13367 1.13367,-1.13367 0.62611,0 1.13366,0.50757 1.13366,1.13367 z"
           style="fill:#3edb8b;fill-opacity:1;fill-rule:nonzero;stroke:#3edb8b;stroke-width:1.19553;stroke-linecap:butt;stroke-linejoin:miter;stroke-miterlimit:10;stroke-dasharray:none;stroke-opacity:1"
           transform="matrix(1.035,0,0,-1.035,134.13351,118.39741)"
           clip-path="url(#clipPath90)"
           id="path204" />
        <path
           d="m -21.78127,16.36755 c 0,0.62612 -0.50756,1.13367 -1.13366,1.13367 -0.62612,0 -1.13368,-0.50755 -1.13368,-1.13367 0,-0.62611 0.50756,-1.13366 1.13368,-1.13366 0.6261,0 1.13366,0.50755 1.13366,1.13366 z"
           style="fill:#3edb8b;fill-opacity:1;fill-rule:nonzero;stroke:#3edb8b;stroke-width:1.19553;stroke-linecap:butt;stroke-linejoin:miter;stroke-miterlimit:10;stroke-dasharray:none;stroke-opacity:1"
           transform="matrix(1.035,0,0,-1.035,134.13351,118.39741)"
           clip-path="url(#clipPath91)"
           id="path205" />
        <path
           d="m -30.19412,22.37674 c 0,0.62611 -0.50756,1.13368 -1.13367,1.13368 -0.62611,0 -1.13367,-0.50757 -1.13367,-1.13368 0,-0.6261 0.50756,-1.13367 1.13367,-1.13367 0.62611,0 1.13367,0.50757 1.13367,1.13367 z"
           style="fill:#3edb8b;fill-opacity:1;fill-rule:nonzero;stroke:#3edb8b;stroke-width:1.19553;stroke-linecap:butt;stroke-linejoin:miter;stroke-miterlimit:10;stroke-dasharray:none;stroke-opacity:1"
           transform="matrix(1.035,0,0,-1.035,134.13351,118.39741)"
           clip-path="url(#clipPath92)"
           id="path206" />
        <path
           d="m -33.99408,25.09099 c 0,0.62611 -0.50757,1.13368 -1.13367,1.13368 -0.62611,0 -1.13368,-0.50757 -1.13368,-1.13368 0,-0.6261 0.50757,-1.13367 1.13368,-1.13367 0.6261,0 1.13367,0.50757 1.13367,1.13367 z"
           style="fill:#3edb8b;fill-opacity:1;fill-rule:nonzero;stroke:#3edb8b;stroke-width:1.19553;stroke-linecap:butt;stroke-linejoin:miter;stroke-miterlimit:10;stroke-dasharray:none;stroke-opacity:1"
           transform="matrix(1.035,0,0,-1.035,134.13351,118.39741)"
           clip-path="url(#clipPath93)"
           id="path207" />
        <path
           d="m -50.10086,36.59586 c 0,0.62609 -0.50757,1.13366 -1.13368,1.13366 -0.6261,0 -1.13367,-0.50757 -1.13367,-1.13366 0,-0.62612 0.50757,-1.13369 1.13367,-1.13369 0.62611,0 1.13368,0.50757 1.13368,1.13369 z"
           style="fill:#3edb8b;fill-opacity:1;fill-rule:nonzero;stroke:#3edb8b;stroke-width:1.19553;stroke-linecap:butt;stroke-linejoin:miter;stroke-miterlimit:10;stroke-dasharray:none;stroke-opacity:1"
           transform="matrix(1.035,0,0,-1.035,134.13351,118.39741)"
           clip-path="url(#clipPath94)"
           id="path208" />
        <path
           d="m 41.39198,-28.75563 c 0,0.62611 -0.50757,1.13367 -1.13366,1.13367 -0.62612,0 -1.13369,-0.50756 -1.13369,-1.13367 0,-0.62611 0.50757,-1.13367 1.13369,-1.13367 0.62609,0 1.13366,0.50756 1.13366,1.13367 z"
           style="fill:#3edb8b;fill-opacity:1;fill-rule:nonzero;stroke:#3edb8b;stroke-width:1.19553;stroke-linecap:butt;stroke-linejoin:miter;stroke-miterlimit:10;stroke-dasharray:none;stroke-opacity:1"
           transform="matrix(1.035,0,0,-1.035,134.13351,118.39741)"
           clip-path="url(#clipPath95)"
           id="path209" />
        <path
           d="m 55.62299,-38.92062 c 0,0.62609 -0.50757,1.13366 -1.13369,1.13366 -0.6261,0 -1.13366,-0.50757 -1.13366,-1.13366 0,-0.62612 0.50756,-1.13368 1.13366,-1.13368 0.62612,0 1.13369,0.50756 1.13369,1.13368 z"
           style="fill:#3edb8b;fill-opacity:1;fill-rule:nonzero;stroke:#3edb8b;stroke-width:1.19553;stroke-linecap:butt;stroke-linejoin:miter;stroke-miterlimit:10;stroke-dasharray:none;stroke-opacity:1"
           transform="matrix(1.035,0,0,-1.035,134.13351,118.39741)"
           clip-path="url(#clipPath96)"
           id="path210" />
        <path
           d="m 45.11348,-31.41385 c 0,0.62612 -0.50757,1.13367 -1.13368,1.13367 -0.6261,0 -1.13367,-0.50755 -1.13367,-1.13367 0,-0.62611 0.50757,-1.13367 1.13367,-1.13367 0.62611,0 1.13368,0.50756 1.13368,1.13367 z"
           style="fill:#3edb8b;fill-opacity:1;fill-rule:nonzero;stroke:#3edb8b;stroke-width:1.19553;stroke-linecap:butt;stroke-linejoin:miter;stroke-miterlimit:10;stroke-dasharray:none;stroke-opacity:1"
           transform="matrix(1.035,0,0,-1.035,134.13351,118.39741)"
           clip-path="url(#clipPath97)"
           id="path211" />
        <path
           d="m 53.47787,-37.38841 c 0,0.62611 -0.50757,1.13368 -1.13366,1.13368 -0.62611,0 -1.13368,-0.50757 -1.13368,-1.13368 0,-0.6261 0.50757,-1.13367 1.13368,-1.13367 0.62609,0 1.13366,0.50757 1.13366,1.13367 z"
           style="fill:#3edb8b;fill-opacity:1;fill-rule:nonzero;stroke:#3edb8b;stroke-width:1.19553;stroke-linecap:butt;stroke-linejoin:miter;stroke-miterlimit:10;stroke-dasharray:none;stroke-opacity:1"
           transform="matrix(1.035,0,0,-1.035,134.13351,118.39741)"
           clip-path="url(#clipPath98)"
           id="path212" />
        <path
           d="m 50.68263,-35.39182 c 0,0.62612 -0.50757,1.13369 -1.13368,1.13369 -0.6261,0 -1.13367,-0.50757 -1.13367,-1.13369 0,-0.62609 0.50757,-1.13366 1.13367,-1.13366 0.62611,0 1.13368,0.50757 1.13368,1.13366 z"
           style="fill:#3edb8b;fill-opacity:1;fill-rule:nonzero;stroke:#3edb8b;stroke-width:1.19553;stroke-linecap:butt;stroke-linejoin:miter;stroke-miterlimit:10;stroke-dasharray:none;stroke-opacity:1"
           transform="matrix(1.035,0,0,-1.035,134.13351,118.39741)"
           clip-path="url(#clipPath99)"
           id="path213" />
        <path
           d="m 56.83409,-39.78572 c 0,0.62612 -0.50757,1.13368 -1.13367,1.13368 -0.62611,0 -1.13368,-0.50756 -1.13368,-1.13368 0,-0.6261 0.50757,-1.13367 1.13368,-1.13367 0.6261,0 1.13367,0.50757 1.13367,1.13367 z"
           style="fill:#3edb8b;fill-opacity:1;fill-rule:nonzero;stroke:#3edb8b;stroke-width:1.19553;stroke-linecap:butt;stroke-linejoin:miter;stroke-miterlimit:10;stroke-dasharray:none;stroke-opacity:1"
           transform="matrix(1.035,0,0,-1.035,134.13351,118.39741)"
           clip-path="url(#clipPath100)"
           id="path214" />
        <path
           d="m 40.26227,-27.94868 c 0,0.62611 -0.50757,1.13368 -1.13368,1.13368 -0.6261,0 -1.13367,-0.50757 -1.13367,-1.13368 0,-0.6261 0.50757,-1.13367 1.13367,-1.13367 0.62611,0 1.13368,0.50757 1.13368,1.13367 z"
           style="fill:#3edb8b;fill-opacity:1;fill-rule:nonzero;stroke:#3edb8b;stroke-width:1.19553;stroke-linecap:butt;stroke-linejoin:miter;stroke-miterlimit:10;stroke-dasharray:none;stroke-opacity:1"
           transform="matrix(1.035,0,0,-1.035,134.13351,118.39741)"
           clip-path="url(#clipPath101)"
           id="path215" />
        <path
           d="m 51.20874,-35.7676 c 0,0.62612 -0.50757,1.13369 -1.13367,1.13369 -0.62611,0 -1.13368,-0.50757 -1.13368,-1.13369 0,-0.62609 0.50757,-1.13366 1.13368,-1.13366 0.6261,0 1.13367,0.50757 1.13367,1.13366 z"
           style="fill:#3edb8b;fill-opacity:1;fill-rule:nonzero;stroke:#3edb8b;stroke-width:1.19553;stroke-linecap:butt;stroke-linejoin:miter;stroke-miterlimit:10;stroke-dasharray:none;stroke-opacity:1"
           transform="matrix(1.035,0,0,-1.035,134.13351,118.39741)"
           clip-path="url(#clipPath102)"
           id="path216" />
        <path
           d="m 56.29347,-39.39954 c 0,0.62612 -0.50757,1.13367 -1.13368,1.13367 -0.6261,0 -1.13367,-0.50755 -1.13367,-1.13367 0,-0.62611 0.50757,-1.13366 1.13367,-1.13366 0.62611,0 1.13368,0.50755 1.13368,1.13366 z"
           style="fill:#3edb8b;fill-opacity:1;fill-rule:nonzero;stroke:#3edb8b;stroke-width:1.19553;stroke-linecap:butt;stroke-linejoin:miter;stroke-miterlimit:10;stroke-dasharray:none;stroke-opacity:1"
           transform="matrix(1.035,0,0,-1.035,134.13351,118.39741)"
           clip-path="url(#clipPath103)"
           id="path217" />
        <path
           d="m 48.74777,-34.00975 c 0,0.62611 -0.50757,1.13367 -1.13368,1.13367 -0.6261,0 -1.13367,-0.50756 -1.13367,-1.13367 0,-0.62611 0.50757,-1.13367 1.13367,-1.13367 0.62611,0 1.13368,0.50756 1.13368,1.13367 z"
           style="fill:#3edb8b;fill-opacity:1;fill-rule:nonzero;stroke:#3edb8b;stroke-width:1.19553;stroke-linecap:butt;stroke-linejoin:miter;stroke-miterlimit:10;stroke-dasharray:none;stroke-opacity:1"
           transform="matrix(1.035,0,0,-1.035,134.13351,118.39741)"
           clip-path="url(#clipPath104)"
           id="path218" />
        <path
           d="m 54.6512,-38.22649 c 0,0.6261 -0.50757,1.13367 -1.13368,1.13367 -0.6261,0 -1.13367,-0.50757 -1.13367,-1.13367 0,-0.62611 0.50757,-1.13368 1.13367,-1.13368 0.62611,0 1.13368,0.50757 1.13368,1.13368 z"
           style="fill:#3edb8b;fill-opacity:1;fill-rule:nonzero;stroke:#3edb8b;stroke-width:1.19553;stroke-linecap:butt;stroke-linejoin:miter;stroke-miterlimit:10;stroke-dasharray:none;stroke-opacity:1"
           transform="matrix(1.035,0,0,-1.035,134.13351,118.39741)"
           clip-path="url(#clipPath105)"
           id="path219" />
        <path
           d="m 50.30089,-35.11913 c 0,0.6261 -0.50756,1.13367 -1.13367,1.13367 -0.62612,0 -1.13367,-0.50757 -1.13367,-1.13367 0,-0.62611 0.50755,-1.13367 1.13367,-1.13367 0.62611,0 1.13367,0.50756 1.13367,1.13367 z"
           style="fill:#3edb8b;fill-opacity:1;fill-rule:nonzero;stroke:#3edb8b;stroke-width:1.19553;stroke-linecap:butt;stroke-linejoin:miter;stroke-miterlimit:10;stroke-dasharray:none;stroke-opacity:1"
           transform="matrix(1.035,0,0,-1.035,134.13351,118.39741)"
           clip-path="url(#clipPath106)"
           id="path220" />
        <path
           d="m 46.56195,-32.44846 c 0,0.6261 -0.50757,1.13367 -1.13367,1.13367 -0.62611,0 -1.13368,-0.50757 -1.13368,-1.13367 0,-0.62611 0.50757,-1.13368 1.13368,-1.13368 0.6261,0 1.13367,0.50757 1.13367,1.13368 z"
           style="fill:#3edb8b;fill-opacity:1;fill-rule:nonzero;stroke:#3edb8b;stroke-width:1.19553;stroke-linecap:butt;stroke-linejoin:miter;stroke-miterlimit:10;stroke-dasharray:none;stroke-opacity:1"
           transform="matrix(1.035,0,0,-1.035,134.13351,118.39741)"
           clip-path="url(#clipPath107)"
           id="path221" />
        <path
           d="m 44.8732,-31.2422 c 0,0.62611 -0.50757,1.13366 -1.13368,1.13366 -0.6261,0 -1.13367,-0.50755 -1.13367,-1.13366 0,-0.62612 0.50757,-1.13367 1.13367,-1.13367 0.62611,0 1.13368,0.50755 1.13368,1.13367 z"
           style="fill:#3edb8b;fill-opacity:1;fill-rule:nonzero;stroke:#3edb8b;stroke-width:1.19553;stroke-linecap:butt;stroke-linejoin:miter;stroke-miterlimit:10;stroke-dasharray:none;stroke-opacity:1"
           transform="matrix(1.035,0,0,-1.035,134.13351,118.39741)"
           clip-path="url(#clipPath108)"
           id="path222" />
        <path
           d="m 37.71506,-26.12924 c 0,0.62611 -0.50757,1.13367 -1.13368,1.13367 -0.6261,0 -1.13367,-0.50756 -1.13367,-1.13367 0,-0.62612 0.50757,-1.13367 1.13367,-1.13367 0.62611,0 1.13368,0.50755 1.13368,1.13367 z"
           style="fill:#3edb8b;fill-opacity:1;fill-rule:nonzero;stroke:#3edb8b;stroke-width:1.19553;stroke-linecap:butt;stroke-linejoin:miter;stroke-miterlimit:10;stroke-dasharray:none;stroke-opacity:1"
           transform="matrix(1.035,0,0,-1.035,134.13351,118.39741)"
           clip-path="url(#clipPath109)"
           id="path223" />
        <path
           d="m 15.30707,-9.6378 c 0,0.9393 -0.76145,1.70073 -1.70075,1.70073 -0.9393,0 -1.70072,-0.76143 -1.70072,-1.70073 0,-0.9393 0.76142,-1.70075 1.70072,-1.70075 0.9393,0 1.70075,0.76145 1.70075,1.70075 z"
           style="fill:#000000;fill-opacity:1;fill-rule:nonzero;stroke:#000000;stroke-width:1.19553;stroke-linecap:butt;stroke-linejoin:miter;stroke-miterlimit:10;stroke-dasharray:none;stroke-opacity:1"
           transform="matrix(1.035,0,0,-1.035,134.13351,118.39741)"
           clip-path="url(#clipPath110)"
           id="path224" />
        <g
           aria-label="y&#10;i"
           transform="matrix(1.035,0,0,1.035,152.32053,131.12791)"
           clip-path="url(#clipPath111)"
           id="g226">
          <path
             d="m 5.0420604,-3.7429988 c 0.075483,-0.1358696 0.1056763,-0.2113526 0.7397343,-0.2113526 v -0.4679952 c -0.2415459,0.015097 -0.5434783,0.030193 -0.7850242,0.030193 -0.2566425,0 -0.709541,-0.015097 -0.9057971,-0.030193 v 0.4679952 c 0.015097,0 0.4679952,0 0.4679952,0.1207729 0,0.015097 -0.04529,0.1056763 -0.060386,0.1207729 l -1.147343,2.4456522 -1.2530193,-2.687198 h 0.5283816 v -0.4679952 c -0.3321256,0.015097 -1.222826,0.030193 -1.2379227,0.030193 -0.2717391,0 -0.72463764,-0.015097 -1.13224633,-0.030193 v 0.4679952 H 0.89049034 L 2.762471,9.6256039e-4 2.5360217,0.48405435 C 2.3095725,0.95204952 1.9925435,1.6313973 1.2830024,1.6313973 c -0.1358695,0 -0.1509662,0 -0.2415459,-0.030193 0.09058,-0.04529 0.317029,-0.1811594 0.317029,-0.5283816 0,-0.33212564 -0.2264493,-0.57367153 -0.57367149,-0.57367153 -0.27173913,0 -0.55857488,0.19625603 -0.55857488,0.57367153 0,0.513285 0.46799517,0.9208937 1.05676327,0.9208937 0.7699276,0 1.343599,-0.6189614 1.6153382,-1.19263287 z m 0,0"
             style="fill:#000000;fill-opacity:1;fill-rule:nonzero;stroke:none"
             id="path225" />
          <path
             d="m 7.8726763,-2.7768152 c 0,-0.3321256 -0.2717391,-0.5736715 -0.5585749,-0.5736715 -0.3472222,0 -0.5736714,0.2717391 -0.5736714,0.5585749 0,0.3472222 0.2717391,0.5736715 0.5585748,0.5736715 0.3321256,0 0.5736715,-0.2717392 0.5736715,-0.5585749 z m -1.343599,1.1926328 v 0.3925121 c 0.4076087,0 0.4528985,0 0.4528985,0.27173914 V 1.1030157 H 6.5139807 v 0.3925121 c 0.015097,0 0.5585749,-0.030193 0.8756038,-0.030193 0.2868358,0 0.5736715,0.015097 0.8605073,0.030193 V 1.1030157 H 7.8122899 v -2.7475845 z m 0,0"
             style="fill:#000000;fill-opacity:1;fill-rule:nonzero;stroke:none"
             id="path226" />
        </g>
      </g>
    </g>
  </g>
</svg>
